<?xml version="1.0" standalone="no"?>
<!DOCTYPE svg PUBLIC "-//W3C//DTD SVG 20010904//EN"
 "http://www.w3.org/TR/2001/REC-SVG-20010904/DTD/svg10.dtd">
<svg version="1.0" xmlns="http://www.w3.org/2000/svg"
 width="700.000000pt" height="700.000000pt" viewBox="0 0 700.000000 700.000000"
 preserveAspectRatio="xMidYMid meet">
<metadata>
Created by potrace 1.14, written by Peter Selinger 2001-2017
</metadata>
<g transform="translate(0.000000,700.000000) scale(0.100000,-0.100000)"
fill="#000000" stroke="none">
<path d="M3297 6644 c-1 -1 -27 -4 -58 -7 -70 -8 -160 -41 -185 -68 -29 -32
-3 -69 66 -93 59 -20 210 -27 305 -14 102 14 185 58 185 100 0 41 -113 80
-243 83 -37 1 -68 0 -70 -1z"/>
<path d="M4290 6513 c-90 -14 -136 -54 -118 -103 13 -40 69 -87 145 -123 61
-28 63 -30 50 -51 -8 -11 -36 -55 -62 -96 -26 -41 -51 -78 -54 -82 -4 -4 -40
-1 -81 7 -87 17 -297 14 -375 -5 -49 -12 -51 -12 -132 29 -150 76 -349 144
-463 158 -49 6 -66 13 -126 55 -166 116 -579 70 -789 -87 -108 -80 -146 -170
-104 -243 l18 -32 -44 -66 c-55 -82 -98 -185 -128 -303 l-22 -91 -50 -16
c-139 -46 -280 -133 -379 -232 l-59 -59 -74 13 c-40 7 -93 15 -116 18 -43 6
-110 14 -160 21 -37 5 -41 9 -27 34 16 32 16 122 0 156 -22 45 -71 65 -150 61
-212 -11 -500 -275 -506 -466 -4 -103 49 -146 165 -138 105 8 225 69 336 172
49 46 51 46 105 41 30 -3 64 -7 75 -9 11 -2 40 -7 65 -10 25 -3 55 -8 67 -10
50 -10 119 -20 126 -18 10 3 10 5 -14 -63 -40 -112 -35 -262 11 -355 l18 -35
-103 -108 c-57 -59 -137 -152 -178 -205 -72 -94 -180 -264 -192 -302 -3 -10
-35 -35 -70 -55 -348 -194 -470 -691 -234 -949 58 -64 112 -98 194 -121 101
-30 241 -10 366 50 35 17 38 17 92 -3 165 -62 371 -94 631 -97 138 -1 150 -3
157 -21 4 -10 19 -50 34 -89 54 -141 159 -276 275 -353 l58 -39 -62 -154 c-34
-85 -77 -192 -95 -239 -18 -47 -38 -98 -45 -115 -7 -16 -19 -44 -25 -62 -13
-32 -13 -32 -76 -28 -185 9 -372 -97 -446 -253 -47 -98 -59 -154 -54 -257 8
-193 94 -340 255 -439 87 -54 143 -70 254 -72 105 -2 140 6 236 53 143 72 251
253 251 422 0 157 -60 294 -178 407 l-52 50 109 280 c61 153 115 290 120 303
8 18 15 22 33 16 43 -14 280 -15 342 -1 82 18 199 61 252 92 l44 25 82 -79
c45 -44 105 -99 132 -122 28 -23 61 -52 75 -63 97 -82 263 -189 408 -262 89
-45 93 -49 119 -103 123 -263 410 -408 693 -351 128 26 286 125 368 232 54 69
108 188 127 274 18 88 14 238 -10 324 -18 66 -18 67 3 135 36 115 53 187 77
338 15 98 21 340 12 511 -2 40 -2 40 49 56 29 9 79 33 112 53 68 41 172 147
191 194 l14 32 146 -76 c145 -76 227 -120 311 -168 38 -21 45 -30 46 -58 11
-269 211 -513 417 -510 177 3 288 162 274 392 -13 205 -126 389 -286 467 -46
23 -70 28 -132 28 -67 0 -81 -4 -120 -29 -49 -32 -84 -68 -105 -109 -8 -15
-18 -26 -22 -23 -25 15 -358 197 -405 221 l-57 30 3 84 c6 129 -30 279 -93
394 l-29 54 55 59 c135 143 229 311 259 460 4 23 14 33 40 42 46 17 103 79
116 127 73 268 -319 654 -666 657 -66 1 -96 7 -168 35 -94 36 -298 97 -357
107 -19 3 -73 12 -120 21 -47 8 -97 15 -111 15 -21 0 -39 15 -80 67 -64 79
-152 153 -231 192 l-56 29 60 104 60 104 131 -1 c115 0 137 3 171 21 85 44 56
115 -77 192 -39 23 -165 68 -214 76 -15 3 -39 8 -53 11 -33 7 -167 12 -200 8z
m-985 -393 c55 -17 147 -54 204 -81 l104 -49 -44 -32 c-100 -72 -142 -149
-143 -260 l-1 -77 -40 -10 c-178 -42 -515 -150 -640 -206 -101 -45 -101 -45
-126 -21 -74 68 -207 116 -341 123 -91 6 -96 7 -92 27 2 12 7 34 10 51 17 92
106 301 125 290 32 -20 241 -33 319 -20 14 2 40 7 59 9 99 15 265 84 334 138
59 46 84 77 103 124 15 38 18 41 42 34 15 -5 72 -23 127 -40z m1590 -540 c44
-7 118 -21 165 -32 47 -11 94 -21 104 -24 24 -4 148 -45 159 -51 5 -3 1 -13
-8 -23 -45 -50 -57 -159 -27 -246 40 -116 167 -272 278 -341 82 -52 153 -87
222 -109 78 -26 80 -27 72 -53 -29 -103 -228 -364 -263 -347 -7 3 -42 30 -80
59 -71 57 -178 114 -263 141 -66 22 -86 26 -164 34 -63 7 -65 8 -85 47 -20 40
-70 130 -115 210 -43 76 -154 250 -220 345 l-66 94 47 37 c87 69 124 142 128
251 1 19 6 25 19 23 9 -2 53 -9 97 -15z m-1353 -140 c33 -33 78 -73 101 -89
97 -66 252 -129 361 -146 21 -4 48 -9 60 -11 70 -15 294 -2 368 22 24 7 129
-143 272 -389 10 -17 45 -82 77 -142 l58 -110 -59 -23 c-321 -125 -458 -478
-319 -825 17 -43 29 -80 27 -82 -12 -12 -235 -107 -403 -172 -116 -44 -424
-153 -434 -153 -5 0 -14 15 -22 33 -21 53 -107 172 -158 219 -150 138 -328
209 -536 214 -116 3 -177 -5 -272 -35 l-58 -18 -33 71 c-119 251 -262 608
-262 654 0 6 26 25 58 42 187 105 330 280 376 457 20 77 20 149 0 225 -8 33
-14 62 -12 63 2 2 54 24 116 50 169 69 488 172 592 192 13 2 27 6 29 9 9 8 15
3 73 -56z m-1941 -999 c96 -52 187 -71 318 -67 64 2 135 7 159 11 37 7 42 5
42 -12 0 -29 113 -342 166 -461 13 -29 24 -55 24 -57 0 -3 23 -53 50 -111 28
-58 50 -107 50 -109 0 -2 -37 -41 -83 -87 -137 -138 -229 -324 -241 -492 l-3
-41 -159 0 c-172 0 -247 6 -373 30 -132 25 -127 18 -72 107 129 209 140 470
27 645 -77 120 -191 184 -343 192 -30 2 149 248 281 389 49 50 91 92 95 92 4
0 32 -13 62 -29z m3077 -1032 c141 -129 339 -222 493 -231 22 -1 43 -6 45 -10
8 -13 7 -291 -1 -378 -8 -89 -22 -191 -34 -240 -5 -19 -12 -47 -15 -63 l-6
-27 -52 41 c-29 22 -74 52 -102 66 -53 27 -156 65 -156 58 0 -3 -12 0 -27 6
-38 14 -156 14 -228 -1 -262 -54 -473 -283 -509 -555 -4 -27 -8 -50 -9 -52
-11 -10 -316 206 -412 293 -99 90 -155 145 -155 154 0 5 18 33 40 62 102 135
160 318 157 495 l-2 83 120 39 c175 59 306 106 384 141 38 16 72 30 75 30 4 0
28 9 54 21 26 12 67 30 92 41 25 10 72 32 105 48 33 16 66 29 74 29 7 1 38
-22 69 -50z"/>
<path d="M3416 4944 c-32 -8 -88 -30 -125 -49 -237 -126 -304 -387 -150 -588
140 -183 442 -246 662 -137 166 81 249 212 244 383 -3 70 -8 91 -35 142 -55
103 -141 179 -257 228 -86 36 -240 46 -339 21z"/>
<path d="M1769 6206 c-2 -2 -17 -6 -34 -9 -93 -17 -221 -83 -292 -152 -45 -44
-53 -57 -53 -88 0 -49 30 -68 104 -68 231 0 542 238 406 311 -18 10 -122 14
-131 6z"/>
<path d="M5455 6004 c-46 -16 -48 -18 -47 -53 1 -42 23 -79 79 -132 84 -80
180 -135 284 -161 168 -43 221 47 100 169 -122 124 -323 209 -416 177z"/>
<path d="M6515 4671 c-57 -25 -84 -105 -66 -194 46 -219 278 -421 418 -362 46
19 67 66 66 147 -2 174 -192 398 -350 413 -26 3 -57 1 -68 -4z"/>
<path d="M299 4287 c-98 -37 -173 -112 -240 -239 -39 -76 -43 -90 -46 -168 -2
-73 1 -91 20 -124 34 -60 69 -81 135 -81 250 0 473 461 290 598 -33 25 -112
31 -159 14z"/>
<path d="M695 2444 c-96 -40 -174 -127 -211 -234 -14 -40 -19 -82 -18 -155 0
-90 3 -107 31 -166 59 -128 152 -199 267 -204 211 -10 376 222 334 469 -21
121 -94 227 -193 278 -54 28 -157 34 -210 12z"/>
<path d="M5973 2130 c-111 -25 -212 -123 -259 -250 -19 -55 -27 -180 -13 -240
25 -115 105 -221 197 -263 67 -30 171 -29 238 3 247 120 299 486 97 677 -67
63 -172 92 -260 73z"/>
<path d="M3748 1131 c-185 -59 -297 -205 -299 -390 -3 -209 163 -381 380 -394
272 -17 487 220 439 483 -42 232 -289 374 -520 301z"/>
</g>
</svg>
