<svg width="140" height="117" viewBox="0 0 477 408" fill="none" xmlns="http://www.w3.org/2000/svg">
<path opacity="1" fill-rule="evenodd" clip-rule="evenodd" d="M248.929 216.253C259.293 213.027 269.658 209.506 280.04 205.721C280.178 205.721 280.178 205.721 280.04 205.721C289.519 202.199 298.477 198.628 306.932 194.975C306.636 194.267 306.324 193.642 306.029 193.083C301.88 184.657 300.178 176.511 300.925 168.645C301.671 160.779 304.484 153.835 309.362 147.795C314.258 141.887 320.924 137.674 329.362 135.157C329.813 135.157 330.178 135.091 330.473 134.943C326.931 128.064 323.077 121.251 318.928 114.504C314.188 106.786 309.154 99.5619 303.807 92.8149C303.373 92.963 302.782 93.0947 302.036 93.2428C294.032 95.0694 285.89 95.4808 277.592 94.4934C269.293 93.5225 261.672 91.268 254.71 87.7629C247.748 84.3893 242.262 80.0284 238.252 74.6966C230.266 76.3916 222.262 78.498 214.259 81.0158C204.328 84.1096 194.849 87.5489 185.822 91.3338C188.478 97.0935 188.999 103.133 187.367 109.452C185.735 115.771 182.332 121.745 177.141 127.356C171.968 133.116 165.301 137.888 157.141 141.69C159.659 149.539 162.784 157.619 166.482 165.913C169.884 173.763 173.669 181.563 177.818 189.281C187.141 185.924 196.481 184.789 205.822 185.924C215.144 187.043 223.599 190.137 231.151 195.189C238.703 200.241 244.554 207.054 248.703 215.611C248.703 215.759 248.772 215.973 248.929 216.253ZM315.369 206.56C306.185 210.625 296.48 214.558 286.255 218.359C286.255 218.491 286.255 218.491 286.255 218.359C286.255 218.491 286.255 218.573 286.255 218.573C275.144 222.638 263.963 226.357 252.696 229.73C253.738 237.317 252.991 244.689 250.474 251.848C248.113 259.006 244.259 265.473 238.929 271.233C241.446 273.619 243.963 275.857 246.481 277.964C257.436 287.508 268.113 294.963 278.477 300.295C278.772 295.654 279.883 291.03 281.81 286.389C285.074 278.951 289.744 272.977 295.821 268.485C301.88 264.14 308.702 261.392 316.254 260.273C323.806 259.286 331.376 260.339 338.928 263.433C344.101 265.539 348.546 268.419 352.261 272.072C355.525 261.261 357.001 248.836 356.705 234.783C356.705 231.689 356.636 228.611 356.48 225.518C348.771 225.09 341.376 223.263 334.258 220.038C327.296 216.812 320.994 212.32 315.369 206.56ZM180.266 83.5501C189.589 79.7487 199.294 76.3093 209.363 73.232C217.818 70.6978 226.116 68.5256 234.259 66.6989C232.922 61.9266 233.373 57.4999 235.596 53.4188C237.661 49.3541 241.29 45.9147 246.481 43.1007C245.439 42.5412 244.415 41.9817 243.373 41.4222C233.443 36.6499 223.894 33.3422 214.71 31.5156C214.554 33.622 213.599 35.7284 211.811 37.8347C208.86 41.2083 204.78 44.0223 199.589 46.2603C194.415 48.6465 188.704 50.3415 182.488 51.3124C176.412 52.2997 170.405 52.4479 164.485 51.7402C161.968 51.4605 159.659 50.9668 157.593 50.2592C154.034 55.6074 151.378 61.9924 149.589 69.4306C149.294 70.8459 148.999 72.3763 148.704 74.0713C155.075 73.6434 160.996 74.2852 166.482 75.9638C171.968 77.6423 176.551 80.1765 180.266 83.5501ZM326.254 68.3774C326.706 72.3105 325.89 76.0296 323.806 79.5512C321.74 83.0564 318.546 86.0679 314.258 88.6021C319.883 95.7606 325.299 103.413 330.473 111.559C330.629 111.559 330.629 111.559 330.473 111.559C335.074 118.717 339.292 126.024 343.147 133.462C350.264 133.61 357.296 135.091 364.257 137.888C371.08 140.702 377.226 144.635 382.695 149.688C384.188 148.42 385.594 147.087 386.931 145.689C394.031 138.53 398.771 131.503 401.149 124.625C396.844 123.917 392.261 122.37 387.365 119.984C380.993 116.89 375.594 113.171 371.15 108.827C366.705 104.334 363.511 99.7594 361.584 95.1352C359.657 90.3629 359.362 85.9362 360.698 81.8551C361.445 79.7487 362.625 78.0043 364.257 76.5891C355.959 73.6434 346.48 71.3231 335.82 69.6446C332.695 69.0851 329.518 68.6572 326.254 68.3774ZM141.812 236.05C142.263 228.184 144.485 220.811 148.478 213.933C152.332 206.906 157.749 200.949 164.711 196.028C160.405 187.882 156.551 179.671 153.148 171.377C149.451 162.82 146.326 154.46 143.808 146.314C136.256 148.009 129.069 148.42 122.263 147.581C115.597 146.594 109.815 144.422 104.92 141.048C103.444 142.315 102.038 143.582 100.701 144.849C91.083 154.394 83.5137 163.659 78.045 172.644C81.1526 172.644 84.2602 173.072 87.3678 173.911C93.6004 175.869 98.4094 179.243 101.812 184.015C105.371 188.804 107.368 194.481 107.819 201.08C108.253 207.548 107.003 214.212 104.034 221.091C102.107 225.172 99.8156 228.825 97.142 232.051C107.663 234.848 120.406 236.264 135.371 236.264C137.437 236.264 139.59 236.198 141.812 236.05ZM254.918 111.559C249.154 109.88 243.373 109.32 237.592 109.88C231.967 110.571 226.776 112.332 222.037 115.146C217.436 117.812 213.894 121.399 211.377 125.892C208.86 130.664 207.957 135.436 208.703 140.209C209.589 145.129 211.811 149.539 215.37 153.472C218.929 157.274 223.669 160.219 229.589 162.326C235.665 164.284 241.741 164.926 247.818 164.218C253.738 163.659 259.068 161.832 263.807 158.738C268.547 155.793 272.106 151.86 274.484 146.956C277.592 139.649 277.296 132.688 273.599 126.089C269.883 119.49 263.668 114.652 254.918 111.559ZM224.71 0.561461C219.519 0.841219 215.301 1.68048 212.037 3.07926C208.773 4.49449 207.228 6.02492 207.367 7.71991C207.957 9.54655 210.335 10.9453 214.485 11.9327C218.634 12.9201 223.599 13.1998 229.363 12.772C235.005 12.3441 239.363 11.439 242.488 10.0402C245.734 8.625 247.002 7.01229 246.255 5.18565C245.213 3.50712 242.696 2.23999 238.703 1.40073C234.71 0.413355 230.04 0.133602 224.71 0.561461ZM105.597 34.0498C100.857 36.5676 97.5239 39.1677 95.5969 41.8336C93.8087 44.516 93.8087 46.6224 95.5969 48.1528C97.8191 49.6997 101.291 50.0617 106.031 49.206C110.77 48.3667 115.736 46.6224 120.926 43.94C125.822 41.1424 129.156 38.3943 130.926 35.7284C132.558 33.0624 132.263 31.0219 130.041 29.6231C127.663 28.356 124.19 28.1421 119.59 28.9978C115.006 29.837 110.336 31.5156 105.597 34.0498ZM0.0422654 178.963C-0.252869 184.295 0.997115 188.228 3.80959 190.762C6.77831 193.428 10.7713 193.988 15.8234 192.441C20.9969 190.482 25.4413 186.977 29.1566 181.909C32.8544 177.005 34.9204 171.657 35.3718 165.913C35.6669 160.433 34.1912 156.566 30.9274 154.328C27.8198 151.942 23.8094 151.728 18.931 153.686C14.0352 155.661 9.88592 159.018 6.48317 163.807C2.92418 168.579 0.771427 173.631 0.0422654 178.963ZM35.1461 312.308C39.0002 317.919 43.8092 321.145 49.5904 321.984C55.5278 322.971 60.9965 321.359 66.0312 317.146C69.4513 314.2 71.8818 310.613 73.3749 306.4C74.8506 302.335 75.3714 298.04 74.92 293.548C74.486 289.055 72.9235 284.925 70.2673 281.123C66.2569 275.643 61.2917 272.566 55.3716 271.858C49.5904 271.299 44.1911 273.191 39.1565 277.552C34.5558 282.045 31.8822 287.59 31.1531 294.189C30.4065 300.64 31.7433 306.68 35.1461 312.308ZM267.366 408.774C275.213 407.507 281.446 404.067 286.029 398.456C290.63 392.976 292.557 386.591 291.81 379.284C290.769 371.846 287.227 366.021 281.151 361.808C275.213 357.595 268.182 355.966 260.04 356.953C252.036 358.22 245.665 361.726 240.925 367.485C236.325 373.113 234.484 379.63 235.37 387.085C236.707 394.243 240.404 399.855 246.481 403.936C252.401 408 259.363 409.613 267.366 408.774ZM425.594 337.782C430.472 333.158 433.371 327.53 434.257 320.931C435.003 314.332 433.597 308.227 430.038 302.615C426.184 296.987 421.219 293.762 415.142 292.922C409.222 292.083 403.597 293.762 398.25 297.974C394.708 301.068 392.104 304.721 390.472 308.934C388.997 313.147 388.476 317.491 388.927 321.984C389.361 326.476 390.924 330.623 393.597 334.425C397.747 339.888 402.781 342.916 408.701 343.476C414.778 344.183 420.403 342.274 425.594 337.782ZM472.486 148.206C470.402 143.154 467.295 138.728 463.145 134.943C458.996 131.158 454.777 128.838 450.472 127.998C446.027 127.422 442.989 128.689 441.375 131.783C439.587 134.729 439.587 138.876 441.375 144.208C443.441 149.836 446.705 154.608 451.149 158.541C455.437 162.474 459.881 164.712 464.482 165.272C468.631 165.551 471.444 164.087 472.92 160.845C474.413 157.619 474.256 153.407 472.486 148.206ZM397.816 50.4731C393.667 47.3793 389.292 44.9932 384.709 43.3147C379.969 41.6361 376.028 41.0602 372.921 41.6361C369.813 42.3273 368.632 44.0223 369.362 46.6882C370.108 49.4857 372.556 52.5795 376.705 55.953C381.15 59.3265 385.82 61.8443 390.698 63.5393C395.594 65.2179 399.587 65.6457 402.695 64.8065C405.368 63.8191 406.254 61.9924 405.368 59.3265C404.483 56.6606 401.965 53.6985 397.816 50.4731ZM145.371 257.328C144.329 254.941 143.513 252.473 142.923 249.955C140.11 250.087 137.298 250.169 134.485 250.169C114.486 250.169 98.0448 247.569 85.1456 242.369C80.1109 245.183 74.92 246.927 69.5902 247.635C64.2604 248.342 59.1563 247.701 54.2605 245.742C48.6355 243.356 44.2606 239.703 41.153 234.783C38.0454 229.879 36.4134 224.316 36.2572 218.145C35.962 211.826 37.2988 205.441 40.2676 198.974C42.9238 193.494 46.3265 188.722 50.4758 184.657C54.7813 180.576 59.4514 177.564 64.4861 175.59C70.5624 163.379 80.0415 151.086 92.9233 138.728C94.5552 137.049 96.2566 135.502 98.0448 134.104C96.708 132.129 95.6663 130.022 94.9198 127.784C92.6976 120.346 93.5136 112.76 97.3677 105.025C88.0449 103.347 78.9998 102.014 70.2673 101.027C66.7083 104.828 62.4896 108.119 57.5938 110.933C50.7709 114.586 45.0071 116.133 40.2676 115.557C35.528 115.146 32.8544 112.678 32.2642 108.185C31.969 103.972 33.7398 99.348 37.594 94.296C41.4481 89.0958 46.4133 84.6691 52.4897 81.0158C58.8611 77.5106 64.4861 75.8157 69.3645 75.9638C74.2603 76.1119 77.229 78.136 78.2533 82.069C78.9998 85.0147 78.4096 88.3882 76.4825 92.1896C85.215 93.1605 94.2601 94.3618 103.6 95.7606C109.52 88.8819 117.368 83.3361 127.142 79.1233C130.406 77.8562 133.6 76.803 136.708 75.9638C137.003 74.1371 137.367 72.3763 137.819 70.6978C140.336 61.0051 144.416 52.7934 150.041 46.0464C147.957 43.94 147.072 41.6361 147.367 39.1019C147.662 36.436 149.225 33.7701 152.037 31.1042C155.006 28.2902 158.93 25.8382 163.808 23.7318C168.704 21.6254 173.964 20.1443 179.589 19.3051C185.075 18.3177 190.474 18.0379 195.822 18.4658C204.415 19.4367 210.179 21.757 213.148 25.4103C225.439 26.8091 238.182 30.6763 251.377 36.9955C252.852 37.7031 254.328 38.4765 255.821 39.3158C257.436 38.7563 259.068 38.3284 260.699 38.0487C270.474 36.3701 280.265 36.7157 290.039 39.1019C293.147 34.0498 296.185 29.475 299.154 25.4103C294.102 23.7318 290.178 21.6912 287.366 19.3051C284.258 16.3594 283.598 13.891 285.369 11.9327C287.14 9.95795 290.925 8.90475 296.706 8.7731C302.487 8.625 308.477 9.46426 314.709 11.2909C320.768 12.9859 325.664 15.1581 329.362 17.824C333.077 20.7697 334.327 23.3039 333.147 25.4103C331.81 27.6648 328.251 28.9155 322.487 29.1952C318.477 29.475 314.258 29.1952 309.814 28.356C307.14 32.7169 304.258 37.4233 301.15 42.4754C309.154 45.7008 315.525 50.1275 320.265 55.7391C321.74 57.4341 322.921 59.0468 323.806 60.5937C327.365 61.0051 330.924 61.4988 334.483 62.0583C348.997 64.4444 361.81 68.0319 372.921 72.8042C376.323 72.2447 380.264 72.3105 384.709 73.0181C388.997 73.8574 393.441 75.4701 398.042 77.8562C406.479 82.2171 413.146 87.7628 418.042 94.4934C422.92 101.092 425.003 107.346 424.257 113.254C423.076 118.997 419.448 122.65 413.372 124.197C411.878 134.169 406.41 144.208 396.931 154.328C395.143 156.155 393.302 157.965 391.375 159.792C392.261 161.207 393.146 162.671 394.031 164.218C396.705 169.27 398.476 174.339 399.361 179.391C400.264 184.443 400.264 189.363 399.361 194.136C410.472 199.616 421.288 205.227 431.809 210.987C433.892 206.066 437.364 202.693 442.26 200.866C448.041 198.908 453.961 199.747 460.038 203.401C465.958 206.906 470.628 212.451 474.031 220.038C476.999 227.624 477.746 234.783 476.253 241.53C474.621 248.408 471.149 253.246 465.819 256.06C459.743 258.726 453.597 258.381 447.364 255.007C440.993 251.502 436.028 245.742 432.486 237.728C430.264 232.544 429.222 227.41 429.361 222.358C418.406 216.598 407.069 210.839 395.368 205.079C391.219 212.945 384.483 218.771 375.143 222.572C373.372 223.132 371.584 223.625 369.813 224.037C370.108 227.97 370.334 231.837 370.473 235.622C370.768 255.287 368.042 272.204 362.261 286.389C364.327 291.441 365.369 296.707 365.369 302.187C365.525 307.667 364.483 313.081 362.261 318.413C359.153 325.719 354.622 331.611 348.702 336.103C342.782 340.596 336.115 343.476 328.702 344.743C321.289 345.862 313.807 345.088 306.255 342.423C300.178 340.036 295.074 336.729 290.925 332.516C286.637 328.171 283.442 323.251 281.376 317.771C266.411 311.88 251.29 302.253 236.03 288.923C233.078 286.258 230.109 283.509 227.141 280.712C224.484 282.538 221.516 284.003 218.252 285.122C212.332 287.508 206.256 288.923 200.04 289.335C193.964 289.763 187.957 289.269 182.037 287.87C176.551 301.068 171.082 314.266 165.596 327.464C171.221 331.117 175.527 336.103 178.478 342.423C180.995 348.314 181.968 354.156 181.377 359.899C180.631 365.807 178.478 371.007 174.919 375.499C171.377 380.124 166.638 383.563 160.7 385.818C154.919 387.924 149.069 388.483 143.148 387.496C137.367 386.509 132.037 384.271 127.142 380.765C122.402 377.244 118.704 372.685 116.031 367.074C113.513 361.314 112.559 355.555 113.149 349.795C113.739 344.183 115.666 339.049 118.93 334.425C122.333 329.784 126.847 326.279 132.489 323.893C138.86 321.359 145.301 320.651 151.812 321.786C157.141 308.72 162.627 295.654 168.252 282.604C163.079 279.79 158.548 276.285 154.711 272.072C150.701 267.711 147.593 262.807 145.371 257.328Z" fill="#9AC042"/>
</svg>
