<svg width="20" height="20" viewBox="0 0 20 20" fill="none" xmlns="http://www.w3.org/2000/svg">
<path fill-rule="evenodd" clip-rule="evenodd" d="M10 0C4.47715 0 0 4.47715 0 10C0 15.5228 4.47715 20 10 20C15.5228 20 20 15.5228 20 10C20 7.34784 18.9464 4.8043 17.0711 2.92893C15.1957 1.05357 12.6522 0 10 0ZM10 18C5.58172 18 2 14.4183 2 10C2 5.58172 5.58172 2 10 2C14.4183 2 18 5.58172 18 10C18 12.1217 17.1571 14.1566 15.6569 15.6569C14.1566 17.1571 12.1217 18 10 18ZM13.1201 6.48961C13.3145 6.29904 13.6257 6.29904 13.8201 6.48961L14.3201 7.01961C14.4148 7.11349 14.468 7.24129 14.468 7.37461C14.468 7.50793 14.4148 7.63573 14.3201 7.72961L8.7001 13.3496C8.60936 13.4463 8.48268 13.5011 8.3501 13.5011C8.21751 13.5011 8.09083 13.4463 8.0001 13.3496L5.6501 10.9796C5.55544 10.8857 5.5022 10.7579 5.5022 10.6246C5.5022 10.4913 5.55544 10.3635 5.6501 10.2696L6.1801 9.73961C6.27083 9.64293 6.39751 9.58809 6.5301 9.58809C6.66268 9.58809 6.78936 9.64293 6.8801 9.73961L8.3801 11.2296L13.1201 6.48961Z" fill="#1DAF2E"/>
</svg>
