<svg width="4" height="8" viewBox="0 0 4 8" fill="none" xmlns="http://www.w3.org/2000/svg">
<path d="M0.276686 1.30652C0.245134 1.27523 0.227386 1.23263 0.227386 1.18819C0.227386 1.14375 0.245134 1.10115 0.276686 1.06986L0.63002 0.716522C0.660264 0.684296 0.702491 0.666016 0.746686 0.666016C0.790881 0.666016 0.833108 0.684296 0.863353 0.716522L3.92669 3.77986C3.97358 3.82669 3.99996 3.89024 4.00002 3.95652V4.04319C3.99996 4.10947 3.97358 4.17302 3.92669 4.21986L0.863353 7.28319C0.833108 7.31541 0.790881 7.33369 0.746686 7.33369C0.702491 7.33369 0.660264 7.31541 0.63002 7.28319L0.276686 6.92986C0.245134 6.89856 0.227386 6.85596 0.227386 6.81152C0.227386 6.76708 0.245134 6.72448 0.276686 6.69319L2.97002 3.99986L0.276686 1.30652Z" fill="#DD7812"/>
</svg>
