<svg width="10" height="6" viewBox="0 0 10 6" fill="none" xmlns="http://www.w3.org/2000/svg">
<path d="M0.860057 1.06005C0.765401 0.966168 0.712158 0.83837 0.712158 0.705052C0.712158 0.571733 0.765401 0.443935 0.860057 0.350052L1.06006 0.150052C1.15413 0.0523932 1.28447 -0.00191455 1.42006 5.15902e-05H8.58006C8.71564 -0.00191455 8.84598 0.0523932 8.94006 0.150052L9.14006 0.350052C9.23471 0.443935 9.28796 0.571733 9.28796 0.705052C9.28796 0.83837 9.23471 0.966168 9.14006 1.06005L5.35006 4.85005C5.25932 4.94673 5.13264 5.00157 5.00006 5.00157C4.86747 5.00157 4.74079 4.94673 4.65006 4.85005L0.860057 1.06005Z" fill="#888E95"/>
</svg>
