<svg width="7" height="12" viewBox="0 0 7 12" fill="none" xmlns="http://www.w3.org/2000/svg">
<path d="M6.14997 5.27985C6.26722 5.42037 6.33316 5.61101 6.33331 5.80985V6.18985C6.33139 6.38827 6.26571 6.57813 6.14997 6.71985L1.86664 11.8499C1.78841 11.9445 1.68191 11.9978 1.57081 11.9978C1.45971 11.9978 1.35321 11.9445 1.27497 11.8499L0.683308 11.1399C0.604921 11.0477 0.560748 10.9215 0.560748 10.7899C0.560748 10.6582 0.604921 10.532 0.683308 10.4399L4.39164 5.99985L0.683308 1.55985C0.604428 1.46597 0.560059 1.33817 0.560059 1.20485C0.560059 1.07153 0.604428 0.943736 0.683308 0.849852L1.27497 0.149852C1.35321 0.055196 1.45971 0.00195312 1.57081 0.00195312C1.68191 0.00195312 1.78841 0.055196 1.86664 0.149852L6.14997 5.27985Z" fill="#96BC33"/>
</svg>
