<svg width="12" height="10" viewBox="0 0 12 10" fill="none" xmlns="http://www.w3.org/2000/svg">
<path fill-rule="evenodd" clip-rule="evenodd" d="M5.9279 8.79497C5.9279 8.92829 5.87466 9.05609 5.78 9.14997L5.07 9.84997C4.97612 9.94463 4.84832 9.99787 4.715 9.99787C4.58168 9.99787 4.45388 9.94463 4.36 9.84997L0.22 5.71997C0.0793075 5.57946 0.000175052 5.38882 0 5.18997V4.80997C0.00230401 4.61156 0.081116 4.4217 0.22 4.27997L4.35 0.149974C4.44388 0.055318 4.57168 0.0020752 4.705 0.0020752C4.83832 0.0020752 4.96612 0.055318 5.06 0.149974L5.77 0.859974C5.86406 0.952138 5.91707 1.07828 5.91707 1.20997C5.91707 1.34166 5.86406 1.46781 5.77 1.55997L2.33 4.99997L5.78 8.43997C5.87466 8.53386 5.9279 8.66166 5.9279 8.79497ZM10.7871 0.0020752C10.9204 0.0020752 11.0482 0.055318 11.1421 0.149974L11.8521 0.849974C11.9468 0.943858 12 1.07166 12 1.20497C12 1.33829 11.9468 1.46609 11.8521 1.55997L8.4021 4.99997L11.8521 8.43997C11.9462 8.53214 11.9992 8.65828 11.9992 8.78997C11.9992 8.92166 11.9462 9.04781 11.8521 9.13997L11.1421 9.84997C11.0482 9.94463 10.9204 9.99787 10.7871 9.99787C10.6538 9.99787 10.526 9.94463 10.4321 9.84997L6.2921 5.71997C6.15322 5.57825 6.0744 5.38839 6.0721 5.18997V4.80997C6.07228 4.61113 6.15141 4.42049 6.2921 4.27997L10.4321 0.149974C10.526 0.055318 10.6538 0.0020752 10.7871 0.0020752Z" fill="#888E95"/>
</svg>
