<svg width="8" height="5" viewBox="0 0 8 5" fill="none" xmlns="http://www.w3.org/2000/svg">
<path d="M4.47994 4.52003C4.38626 4.61382 4.25917 4.66658 4.12661 4.6667H3.87328C3.741 4.66516 3.61442 4.61262 3.51994 4.52003L0.0999422 1.09336C0.036838 1.03077 0.00134277 0.945574 0.00134277 0.856695C0.00134277 0.767816 0.036838 0.682617 0.0999422 0.620028L0.573276 0.146695C0.634718 0.0839858 0.718816 0.0486475 0.806609 0.0486475C0.894402 0.0486475 0.9785 0.0839858 1.03994 0.146695L3.99994 3.11336L6.95994 0.146695C7.02253 0.0835909 7.10773 0.0480957 7.19661 0.0480957C7.28549 0.0480957 7.37069 0.0835909 7.43328 0.146695L7.89994 0.620028C7.96305 0.682617 7.99854 0.767816 7.99854 0.856695C7.99854 0.945574 7.96305 1.03077 7.89994 1.09336L4.47994 4.52003Z" fill="#888E95"/>
</svg>
