<svg width="7" height="13" viewBox="0 0 7 13" fill="none" xmlns="http://www.w3.org/2000/svg">
<path d="M0.22 7.21985C0.0793075 7.07934 0.000175052 6.8887 0 6.68985V6.30985C0.00230401 6.11144 0.081116 5.92157 0.22 5.77985L5.36 0.649852C5.45388 0.555196 5.58168 0.501953 5.715 0.501953C5.84832 0.501953 5.97612 0.555196 6.07 0.649852L6.78 1.35985C6.87406 1.45202 6.92707 1.57816 6.92707 1.70985C6.92707 1.84154 6.87406 1.96769 6.78 2.05985L2.33 6.49985L6.78 10.9399C6.87466 11.0337 6.9279 11.1615 6.9279 11.2949C6.9279 11.4282 6.87466 11.556 6.78 11.6499L6.07 12.3499C5.97612 12.4445 5.84832 12.4978 5.715 12.4978C5.58168 12.4978 5.45388 12.4445 5.36 12.3499L0.22 7.21985Z" fill="#888E95"/>
</svg>
