<svg width="10" height="7" viewBox="0 0 10 7" fill="none" xmlns="http://www.w3.org/2000/svg">
<path d="M5.59996 6.15016C5.48286 6.2674 5.324 6.33335 5.15829 6.33349H4.84162C4.67628 6.33157 4.51806 6.26589 4.39996 6.15016L0.124958 1.86682C0.046078 1.78859 0.00170898 1.68209 0.00170898 1.57099C0.00170898 1.45989 0.046078 1.35339 0.124958 1.27516L0.716625 0.683491C0.793428 0.605104 0.89855 0.560931 1.00829 0.560931C1.11803 0.560931 1.22316 0.605104 1.29996 0.683491L4.99996 4.39182L8.69996 0.683491C8.77819 0.604611 8.88469 0.560242 8.99579 0.560242C9.10689 0.560242 9.21339 0.604611 9.29163 0.683491L9.87496 1.27516C9.95384 1.35339 9.99821 1.45989 9.99821 1.57099C9.99821 1.68209 9.95384 1.78859 9.87496 1.86682L5.59996 6.15016Z" fill="#9FA4A9"/>
</svg>
