<svg width="5" height="8" viewBox="0 0 5 8" fill="none" xmlns="http://www.w3.org/2000/svg">
<path d="M4.52003 3.51982C4.61382 3.6135 4.66658 3.74059 4.6667 3.87315V4.12649C4.66516 4.25876 4.61262 4.38534 4.52003 4.47982L1.09336 7.89982C1.03077 7.96292 0.945574 7.99842 0.856695 7.99842C0.767816 7.99842 0.682617 7.96292 0.620028 7.89982L0.146695 7.42649C0.0839858 7.36504 0.0486475 7.28095 0.0486475 7.19315C0.0486475 7.10536 0.0839858 7.02126 0.146695 6.95982L3.11336 3.99982L0.146695 1.03982C0.0835909 0.977231 0.0480957 0.892033 0.0480957 0.803153C0.0480957 0.714274 0.0835909 0.629076 0.146695 0.566487L0.620028 0.0998201C0.682617 0.0367159 0.767816 0.0012207 0.856695 0.0012207C0.945574 0.0012207 1.03077 0.0367159 1.09336 0.0998201L4.52003 3.51982Z" fill="#888E95"/>
</svg>
