<svg width="12" height="14" viewBox="0 0 12 14" fill="none" xmlns="http://www.w3.org/2000/svg">
<path d="M6.86952 12.4936C5.29417 14.0616 2.74625 14.0616 1.1709 12.4936C-0.3903 10.9319 -0.3903 8.40195 1.1709 6.84026L6.83616 1.21359C8.01994 0.0399268 9.92967 0.0399268 11.1135 1.21359C11.6807 1.77346 12 2.53694 12 3.33359C12 4.13024 11.6807 4.89373 11.1135 5.45359L5.9153 10.6136C5.53916 10.9943 5.02606 11.2086 4.49065 11.2086C3.95523 11.2086 3.44213 10.9943 3.06599 10.6136C2.68907 10.2383 2.4772 9.72856 2.4772 9.19693C2.4772 8.66529 2.68907 8.15553 3.06599 7.78026L6.36238 4.51359C6.42503 4.45049 6.51031 4.41499 6.59927 4.41499C6.68823 4.41499 6.77351 4.45049 6.83616 4.51359L7.19649 4.86693C7.25965 4.92952 7.29518 5.01471 7.29518 5.10359C7.29518 5.19247 7.25965 5.27767 7.19649 5.34026L3.9001 8.60693C3.62124 8.94139 3.64432 9.43326 3.95327 9.74019C4.26222 10.0471 4.75467 10.0674 5.08787 9.78693L10.286 4.63359C10.632 4.29063 10.8266 3.82385 10.8266 3.33693C10.8266 2.85 10.632 2.38323 10.286 2.04026C9.56247 1.32159 8.39382 1.32159 7.67026 2.04026L1.99166 7.66693C0.88877 8.77261 0.88877 10.5612 1.99166 11.6669C3.11273 12.7655 4.90767 12.7655 6.02874 11.6669L9.7989 7.92693C9.93171 7.7947 10.1465 7.7947 10.2793 7.92693L10.633 8.28026C10.6975 8.34075 10.7341 8.4252 10.7341 8.51359C10.7341 8.60198 10.6975 8.68644 10.633 8.74693L6.86952 12.4936Z" fill="#888E95"/>
</svg>
