<svg width="16" height="15" viewBox="0 0 16 15" fill="none" xmlns="http://www.w3.org/2000/svg">
<g clip-path="url(#clip0_2902_22140)">
<path d="M4 1.26367L2 3.74429V12.4265C2 12.7554 2.14048 13.0709 2.39052 13.3035C2.64057 13.5361 2.97971 13.6668 3.33333 13.6668H12.6667C13.0203 13.6668 13.3594 13.5361 13.6095 13.3035C13.8595 13.0709 14 12.7554 14 12.4265V3.74429L12 1.26367H4Z" stroke="#9FA4A9" stroke-width="1.5" stroke-linecap="round" stroke-linejoin="round"/>
<path d="M2 3.74426H14" stroke="#9FA4A9" stroke-width="1.5" stroke-linecap="round" stroke-linejoin="round"/>
<path d="M10.6667 6.22485C10.6667 6.88275 10.3857 7.51371 9.88563 7.97892C9.38553 8.44412 8.70725 8.70547 8.00001 8.70547C7.29277 8.70547 6.61449 8.44412 6.11439 7.97892C5.61429 7.51371 5.33334 6.88275 5.33334 6.22485" stroke="#9FA4A9" stroke-width="1.5" stroke-linecap="round" stroke-linejoin="round"/>
</g>
<defs>
<clipPath id="clip0_2902_22140">
<rect width="16" height="14.8837" fill="white" transform="translate(0 0.0233154)"/>
</clipPath>
</defs>
</svg>
