<svg width="12" height="21" viewBox="0 0 12 21" fill="none" xmlns="http://www.w3.org/2000/svg">
<path d="M0.830028 2.91957C0.735372 2.82568 0.682129 2.69788 0.682129 2.56457C0.682129 2.43125 0.735372 2.30345 0.830028 2.20957L1.89003 1.14957C1.98076 1.05289 2.10744 0.998047 2.24003 0.998047C2.37261 0.998047 2.49929 1.05289 2.59003 1.14957L11.78 10.3396C11.9207 10.4801 11.9999 10.6707 12 10.8696V11.1296C11.9999 11.3284 11.9207 11.519 11.78 11.6596L2.59003 20.8496C2.49929 20.9462 2.37261 21.0011 2.24003 21.0011C2.10744 21.0011 1.98076 20.9462 1.89003 20.8496L0.830028 19.7896C0.735372 19.6957 0.682129 19.5679 0.682129 19.4346C0.682129 19.3012 0.735372 19.1734 0.830028 19.0796L8.91003 10.9996L0.830028 2.91957Z" fill="#888E95"/>
</svg>
