<svg width="12" height="21" viewBox="0 0 12 21" fill="none" xmlns="http://www.w3.org/2000/svg">
<path d="M11.17 19.0796C11.2647 19.1734 11.3179 19.3012 11.3179 19.4346C11.3179 19.5679 11.2647 19.6957 11.17 19.7896L10.11 20.8496C10.0193 20.9462 9.89259 21.0011 9.76 21.0011C9.62741 21.0011 9.50073 20.9462 9.41 20.8496L0.22 11.6596C0.0793075 11.519 0.000175052 11.3284 0 11.1296V10.8696C0.000175052 10.6707 0.0793075 10.4801 0.22 10.3396L9.41 1.14957C9.50073 1.05289 9.62741 0.998047 9.76 0.998047C9.89259 0.998047 10.0193 1.05289 10.11 1.14957L11.17 2.20957C11.2647 2.30345 11.3179 2.43125 11.3179 2.56457C11.3179 2.69788 11.2647 2.82568 11.17 2.91957L3.09 10.9996L11.17 19.0796Z" fill="#888E95"/>
</svg>
