<svg width="90" height="19" viewBox="0 0 90 19" fill="none" xmlns="http://www.w3.org/2000/svg">
<path d="M7.39138 0.828839C8.02387 0.679162 8.67033 0.598789 9.31797 0.565592C9.96968 0.544626 10.6249 0.554527 11.2702 0.660524C13.0902 0.939495 14.8333 1.76126 16.163 3.03906C16.2037 3.08448 16.2649 3.1171 16.2864 3.1765C15.9725 3.4415 15.6679 3.71872 15.3517 3.98139C14.7792 3.4118 14.1199 2.92665 13.3965 2.56498C12.3005 2.0181 11.0762 1.72865 9.85028 1.73505C8.67732 1.73505 7.49679 1.9389 6.41643 2.40424C5.50497 2.78513 4.68669 3.3786 4.03382 4.11825C3.37629 4.85557 2.87717 5.73034 2.56267 6.66626C2.25458 7.58995 2.12179 8.56606 2.12761 9.53809C2.1381 11.064 2.5219 12.6027 3.32329 13.9096C3.62905 14.4058 3.98897 14.87 4.40423 15.2794C5.29705 16.1414 6.4438 16.7162 7.64356 17.015C8.34652 17.1868 9.07103 17.2695 9.79437 17.2683C11.1193 17.2905 12.4443 16.9567 13.612 16.3347C14.2602 15.9905 14.8502 15.5444 15.3785 15.0371C15.6848 15.319 15.9906 15.6021 16.2922 15.8892C15.4944 16.7005 14.5351 17.3539 13.488 17.8006C12.3342 18.2939 11.0792 18.5648 9.82174 18.5444C8.51949 18.5519 7.20966 18.3306 5.99768 17.8484C5.4642 17.6364 4.94994 17.3732 4.4747 17.0499C3.46073 16.3545 2.61625 15.4209 2.00414 14.3575C1.26449 13.0826 0.894665 11.6167 0.81837 10.1519C0.763042 9.16128 0.8306 8.16071 1.06007 7.19392C1.24993 6.36749 1.55336 5.56552 1.98026 4.83169C2.5551 3.83928 3.32212 2.95577 4.23475 2.25922C5.16718 1.55975 6.26326 1.10082 7.39138 0.828839Z" fill="#4F4C4D"/>
<path d="M75.6506 0.932394C75.7875 0.903856 75.929 0.916672 76.063 0.956858C76.2103 0.996461 76.3757 0.997624 76.5021 1.09372C76.7362 1.24223 76.8673 1.51713 76.8766 1.7897C76.8911 2.02149 76.8649 2.2661 76.7397 2.46703C76.5906 2.71397 76.3082 2.85025 76.0309 2.89393C75.8597 2.92888 75.6966 2.8485 75.5312 2.81822C75.2092 2.77337 74.9646 2.48334 74.9086 2.1735C74.8621 1.91375 74.8714 1.63186 74.9931 1.39249C75.1212 1.14323 75.3816 0.986558 75.6506 0.932394Z" fill="#4F4C4D"/>
<path d="M24.1057 5.73867C24.3789 5.70547 24.6544 5.72178 24.9287 5.71829C26.3608 5.74508 27.7999 6.23604 28.8919 7.17371C29.9397 8.07876 30.6444 9.35597 30.8977 10.7124C31.034 11.4282 31.0596 12.1637 30.9996 12.8894C30.9105 14.0589 30.5221 15.2219 29.7952 16.1532C29.094 17.0518 28.1371 17.7542 27.0609 18.1368C26.4668 18.3506 25.8401 18.4659 25.2106 18.5067C24.4919 18.5422 23.7662 18.5073 23.0644 18.3418C21.3731 17.9627 19.86 16.8189 19.0709 15.2738C18.7744 14.6914 18.584 14.0594 18.4838 13.4153C18.3708 12.6675 18.3633 11.904 18.4535 11.1533C18.5473 10.4258 18.7506 9.70949 19.0808 9.05312C19.3929 8.4317 19.8035 7.85687 20.3079 7.37638C21.3242 6.39911 22.7068 5.84117 24.1057 5.73867ZM24.0824 6.88601C23.5466 6.94017 23.019 7.08111 22.5292 7.30592C21.3021 7.87725 20.3137 8.95994 19.895 10.2494C19.6218 11.0781 19.5589 11.9651 19.6352 12.8306C19.6999 13.4963 19.8723 14.1573 20.1838 14.7519C20.6335 15.6104 21.3655 16.3098 22.2199 16.7624C22.7732 17.0542 23.3847 17.2306 24.0056 17.3005C24.7213 17.3821 25.4534 17.3436 26.1523 17.1654C27.1936 16.9022 28.1319 16.2749 28.7923 15.4316C29.1243 15.0047 29.3759 14.5178 29.539 14.003C29.7591 13.3146 29.8273 12.5854 29.7976 11.8655C29.7696 11.1335 29.6205 10.4002 29.3136 9.7322C28.7807 8.57497 27.7825 7.63497 26.5909 7.17895C25.7953 6.87668 24.9258 6.79981 24.0824 6.88601Z" fill="#4F4C4D"/>
<path d="M37.9157 5.94502C38.7106 5.71264 39.5522 5.66663 40.3728 5.76039C40.9977 5.82737 41.6157 5.98229 42.1893 6.24146C43.0967 6.6538 43.8882 7.33521 44.392 8.19833C44.7164 8.74812 44.9196 9.36373 45.0239 9.99156C45.1281 10.5868 45.1241 11.1931 45.12 11.7953C45.12 13.9799 45.12 16.1645 45.12 18.3496C44.7076 18.3496 44.2959 18.3496 43.8835 18.3496C43.8812 16.1091 43.8835 13.8692 43.883 11.6287C43.8888 11.0131 43.8748 10.3893 43.7158 9.79063C43.5958 9.32121 43.3961 8.86985 43.1095 8.47789C42.7886 8.03585 42.3617 7.67418 41.8807 7.41675C41.3221 7.11856 40.6949 6.96364 40.0659 6.9153C39.3158 6.85124 38.5435 6.90831 37.8347 7.17622C36.8982 7.52508 36.1248 8.24784 35.6501 9.1197C35.3426 9.68521 35.1737 10.32 35.123 10.9595C35.0858 11.5442 35.1108 12.1313 35.1032 12.7172C35.1027 14.5949 35.1044 16.472 35.1027 18.3496C34.6903 18.3496 34.2786 18.3496 33.8662 18.3496C33.8662 14.2134 33.8662 10.0772 33.8662 5.94152C34.2704 5.94152 34.6746 5.94152 35.0782 5.94152C35.0823 6.66487 35.0782 7.38879 35.0799 8.11272C35.3694 7.61069 35.7474 7.15642 36.204 6.79766C36.7078 6.39813 37.3018 6.12556 37.9157 5.94502Z" fill="#4F4C4D"/>
<path d="M50.9941 6.42435C51.8514 5.98464 52.8147 5.75459 53.7779 5.74527C55.0389 5.71731 56.3324 5.966 57.4267 6.61305C58.3836 7.16691 59.1774 8.01897 59.6096 9.03934C59.9701 9.90945 60.1267 10.857 60.1197 11.7958C60.1157 12.1034 60.1127 12.4144 60.0656 12.7178C56.3382 12.7143 52.6114 12.7172 48.8846 12.7166C48.9609 13.8028 49.3534 14.8878 50.0937 15.7009C50.5013 16.1487 50.9917 16.5209 51.531 16.7969C52.5537 17.3188 53.7453 17.4387 54.8717 17.271C55.5123 17.1784 56.1378 16.9897 56.7284 16.7253C57.3679 16.4341 57.9648 16.0194 58.3929 15.4568C58.4249 15.4242 58.4546 15.4813 58.4826 15.4964C58.7528 15.7218 59.0365 15.9332 59.2997 16.1668C58.9806 16.571 58.6078 16.9332 58.1873 17.2308C57.6533 17.6135 57.0528 17.8959 56.432 18.1068C55.252 18.5115 53.9731 18.621 52.7407 18.4294C51.5875 18.2448 50.4728 17.7527 49.605 16.9641C48.7716 16.2011 48.1624 15.1982 47.8613 14.1109C47.6796 13.4592 47.6033 12.7813 47.6056 12.1063C47.6056 10.8856 47.9306 9.65901 48.5887 8.62583C49.1676 7.68991 50.0075 6.91648 50.9941 6.42435ZM53.2456 6.91823C52.6096 6.99336 51.9865 7.18613 51.428 7.49888C50.9463 7.76853 50.5089 8.11681 50.1408 8.52799C49.3744 9.37713 48.9766 10.5087 48.8869 11.6368C52.2422 11.6409 55.598 11.6398 58.9538 11.6374C58.9637 10.5716 58.6993 9.46332 58.0277 8.6136C57.3696 7.77261 56.3813 7.2269 55.3405 7.01724C54.6521 6.8763 53.9428 6.84601 53.2456 6.91823Z" fill="#4F4C4D"/>
<path d="M81.3466 6.47657C82.2237 6.00191 83.2242 5.79573 84.2143 5.74623C84.5946 5.75147 84.9767 5.72934 85.3564 5.76836C86.5684 5.84932 87.7804 6.22264 88.7652 6.94773C88.944 7.08576 89.1327 7.21797 89.2841 7.38686C89.0273 7.65302 88.7868 7.93491 88.5264 8.19582C88.099 7.80969 87.6132 7.48296 87.078 7.26572C86.4962 7.03625 85.8707 6.94132 85.2498 6.8959C84.5882 6.86677 83.9202 6.86677 83.2679 6.99723C82.7851 7.08867 82.3052 7.23311 81.8876 7.49811C81.6221 7.66817 81.3716 7.87143 81.1905 8.13118C80.8748 8.58196 80.8178 9.19115 81.0088 9.7025C81.1969 10.1655 81.5894 10.5254 82.0414 10.7293C82.6407 11.0053 83.2854 11.1725 83.933 11.2907C84.1462 11.3315 84.3599 11.374 84.5737 11.4153C84.608 11.427 84.6307 11.3926 84.6581 11.3769C84.6884 11.4608 84.7857 11.4503 84.8579 11.4666C85.569 11.5936 86.2801 11.7234 86.9807 11.8987C87.523 12.0327 88.05 12.2418 88.5212 12.5435C88.958 12.823 89.3377 13.2068 89.5625 13.6786C89.7122 13.9966 89.7984 14.346 89.806 14.6978C89.8427 15.2749 89.7722 15.8702 89.5212 16.3972C89.2573 16.9523 88.8182 17.4217 88.2836 17.7245C87.2201 18.2947 86.0029 18.544 84.8026 18.544C83.5632 18.5684 82.3122 18.3122 81.1986 17.7612C80.4258 17.3792 79.7403 16.809 79.2662 16.0856C79.2563 16.0449 79.3064 16.0303 79.3274 16.0053C79.5627 15.7939 79.8009 15.5848 80.0356 15.3722C80.0851 15.3355 80.1224 15.2784 80.1835 15.2592C80.5178 15.7525 80.9645 16.1678 81.4695 16.4846C81.8894 16.7467 82.3501 16.9377 82.8224 17.0839C83.4799 17.286 84.1695 17.3792 84.8573 17.3693C85.502 17.3553 86.1502 17.2784 86.7658 17.081C87.0885 16.9767 87.414 16.8626 87.6936 16.6663C88.0791 16.4025 88.389 16.0146 88.516 15.5615C88.6179 15.1899 88.64 14.7863 88.5189 14.4165C88.442 14.1952 88.3342 13.9832 88.1846 13.8026C87.9982 13.586 87.7466 13.4404 87.4927 13.3175C87.3209 13.2342 87.1397 13.1701 86.9534 13.1317C86.3739 12.9954 85.8165 12.7735 85.2271 12.6774C84.5644 12.5534 83.8992 12.4415 83.2382 12.3105C82.7007 12.1865 82.1561 12.07 81.6448 11.8597C81.36 11.7351 81.0897 11.5813 80.8282 11.4142C80.5912 11.2587 80.3699 11.0717 80.2138 10.8329C79.908 10.3664 79.7158 9.81723 79.7176 9.25696C79.6908 8.63612 79.8463 7.99897 80.2033 7.48529C80.4916 7.0613 80.8923 6.7171 81.3466 6.47657Z" fill="#4F4C4D"/>
<path d="M75.2402 5.88477C75.6526 5.88535 76.0655 5.88477 76.4784 5.88535C76.479 10.0396 76.4784 14.1939 76.4784 18.3482C76.0655 18.3499 75.6532 18.3482 75.2402 18.3493C75.2367 14.1945 75.2367 10.0402 75.2402 5.88477Z" fill="#4F4C4D"/>
<path d="M62.2084 5.94125C62.7093 5.94125 63.2108 5.94067 63.7122 5.94183C64.9038 7.58828 66.1047 9.22833 67.3004 10.8719C67.3359 10.9126 67.3563 10.9691 67.4046 11C68.6358 9.31511 69.8612 7.62556 71.0924 5.94125C71.5478 5.94241 72.0033 5.94125 72.4587 5.94183C72.5001 5.94766 72.5542 5.92495 72.5909 5.95465C72.5944 5.99891 72.5548 6.03094 72.5339 6.06647C71.065 8.01693 69.6026 9.97205 68.1315 11.9208C69.7045 14.0151 71.2887 16.1018 72.8658 18.1932C72.8979 18.2416 72.9555 18.2841 72.9421 18.3505C72.4535 18.3505 71.9654 18.3482 71.4774 18.3517C70.1559 16.566 68.8467 14.771 67.5299 12.9819C67.4856 12.9225 67.4442 12.8613 67.3959 12.806C66.0424 14.6563 64.6837 16.5031 63.3261 18.3499C62.8328 18.3435 62.3389 18.3586 61.8462 18.3429C61.8567 18.273 61.9126 18.2247 61.951 18.1699C63.2311 16.4757 64.5107 14.7809 65.7908 13.0867C66.0814 12.6971 66.3814 12.3133 66.6673 11.9202C65.1985 9.97438 63.7378 8.02217 62.2713 6.07462C62.2411 6.03385 62.1991 5.99541 62.2084 5.94125Z" fill="#4F4C4D"/>
</svg>
