<svg width="20" height="20" viewBox="0 0 20 20" fill="none" xmlns="http://www.w3.org/2000/svg">
<path d="M12.5 18.9587H7.5C2.975 18.9587 1.04167 17.0253 1.04167 12.5003V7.50033C1.04167 2.97533 2.975 1.04199 7.5 1.04199H11.6667C12.0083 1.04199 12.2917 1.32533 12.2917 1.66699C12.2917 2.00866 12.0083 2.29199 11.6667 2.29199H7.5C3.65833 2.29199 2.29167 3.65866 2.29167 7.50033V12.5003C2.29167 16.342 3.65833 17.7087 7.5 17.7087H12.5C16.3417 17.7087 17.7083 16.342 17.7083 12.5003V8.33366C17.7083 7.99199 17.9917 7.70866 18.3333 7.70866C18.675 7.70866 18.9583 7.99199 18.9583 8.33366V12.5003C18.9583 17.0253 17.025 18.9587 12.5 18.9587Z" fill="#888E95"/>
<path d="M18.3333 8.95645H15C12.15 8.95645 11.0417 7.84812 11.0417 4.99812V1.66479C11.0417 1.41479 11.1917 1.18145 11.425 1.08979C11.6583 0.989785 11.925 1.04812 12.1083 1.22312L18.775 7.88979C18.8619 7.97734 18.921 8.08863 18.9448 8.20966C18.9687 8.33069 18.9562 8.45607 18.909 8.57005C18.8618 8.68402 18.782 8.7815 18.6796 8.85025C18.5771 8.919 18.4567 8.95595 18.3333 8.95645ZM12.2917 3.17312V4.99812C12.2917 7.14812 12.85 7.70645 15 7.70645H16.825L12.2917 3.17312ZM10.8333 11.4581H5.83333C5.49167 11.4581 5.20833 11.1748 5.20833 10.8331C5.20833 10.4915 5.49167 10.2081 5.83333 10.2081H10.8333C11.175 10.2081 11.4583 10.4915 11.4583 10.8331C11.4583 11.1748 11.175 11.4581 10.8333 11.4581ZM9.16667 14.7915H5.83333C5.49167 14.7915 5.20833 14.5081 5.20833 14.1665C5.20833 13.8248 5.49167 13.5415 5.83333 13.5415H9.16667C9.50833 13.5415 9.79167 13.8248 9.79167 14.1665C9.79167 14.5081 9.50833 14.7915 9.16667 14.7915Z" fill="#888E95"/>
</svg>
