<svg width="20" height="20" viewBox="0 0 20 20" fill="none" xmlns="http://www.w3.org/2000/svg">
<path fill-rule="evenodd" clip-rule="evenodd" d="M10.3932 1.98021C11.1984 1.40075 12.3525 1.46007 13.7422 1.86682L13.743 1.86705C15.7885 2.46868 17.5313 4.21144 18.1329 6.25697L18.1332 6.25776C18.5399 7.64751 18.5992 8.8016 18.0198 9.60675C17.4319 10.4236 16.3749 10.625 15.2667 10.625H12.5C11.5697 10.625 10.7405 10.3912 10.1606 9.74749C9.59408 9.1186 9.375 8.21707 9.375 7.13332V4.73332C9.375 3.62508 9.5764 2.56809 10.3932 1.98021ZM11.1234 2.99477C10.8403 3.19856 10.625 3.6749 10.625 4.73332V7.13332C10.625 8.08291 10.8226 8.61471 11.0894 8.91082C11.3428 9.19216 11.7637 9.37499 12.5 9.37499H15.2667C16.3251 9.37499 16.8014 9.15972 17.0052 8.87657C17.2174 8.58175 17.3267 7.95266 16.9337 6.60948C16.452 4.97191 15.0283 3.54821 13.3908 3.06639C12.0474 2.67327 11.4183 2.78258 11.1234 2.99477Z" fill="#888E95"/>
<path fill-rule="evenodd" clip-rule="evenodd" d="M8.32884 3.21558C8.39848 3.55366 8.18087 3.88418 7.84279 3.95382C6.07997 4.31696 4.52642 5.34902 3.5084 6.83328C2.49037 8.31755 2.08707 10.1385 2.38318 11.9139L2.3835 11.9158C2.85686 14.8094 5.19077 17.1425 8.08268 17.608L8.08703 17.6087C9.86686 17.908 11.6934 17.5034 13.1802 16.4803C14.667 15.4572 15.6976 13.8959 16.054 12.1266C16.1222 11.7882 16.4517 11.5692 16.7901 11.6373C17.1285 11.7055 17.3475 12.035 17.2794 12.3734C16.8589 14.4609 15.643 16.303 13.8888 17.5101C12.1351 18.7167 9.98106 19.1942 7.88183 18.8417C4.45842 18.2897 1.71025 15.5404 1.15005 12.1185C0.801051 10.0246 1.27684 7.87689 2.47756 6.12626C3.67847 4.37536 5.51109 3.1579 7.5906 2.72953C7.92867 2.65989 8.2592 2.8775 8.32884 3.21558Z" fill="#888E95"/>
</svg>
