<svg width="20" height="20" viewBox="0 0 20 20" fill="none" xmlns="http://www.w3.org/2000/svg">
<g clip-path="url(#clip0_1801_2905)">
<path d="M12.1083 7.89161L7.89161 12.1083C7.33245 11.5491 7.01831 10.7907 7.01831 9.99994C7.01831 9.60839 7.09543 9.22067 7.24527 8.85892C7.39512 8.49717 7.61474 8.16848 7.89161 7.89161C8.16848 7.61474 8.49717 7.39512 8.85892 7.24527C9.22067 7.09543 9.60839 7.01831 9.99994 7.01831C10.7907 7.01831 11.5491 7.33245 12.1083 7.89161V7.89161Z" stroke="#C1C6CD" stroke-width="1.5" stroke-linecap="round" stroke-linejoin="round"/>
<path d="M14.85 4.8084C13.3917 3.7084 11.725 3.1084 9.99999 3.1084C7.05833 3.1084 4.31666 4.84173 2.40833 7.84173C1.65833 9.01673 1.65833 10.9917 2.40833 12.1667C3.06666 13.2001 3.83333 14.0917 4.66666 14.8084M7.01666 16.2751C7.96666 16.6751 8.97499 16.8917 9.99999 16.8917C12.9417 16.8917 15.6833 15.1584 17.5917 12.1584C18.3417 10.9834 18.3417 9.0084 17.5917 7.8334C17.3167 7.40006 17.0167 6.99173 16.7083 6.6084" stroke="#C1C6CD" stroke-width="1.5" stroke-linecap="round" stroke-linejoin="round"/>
<path d="M12.925 10.5834C12.8121 11.1647 12.528 11.699 12.1093 12.1178C11.6906 12.5365 11.1563 12.8205 10.575 12.9334M7.89163 12.1084L1.66663 18.3334M18.3333 1.66675L12.1083 7.89175" stroke="#888E95" stroke-width="1.5" stroke-linecap="round" stroke-linejoin="round"/>
</g>
<defs>
<clipPath id="clip0_1801_2905">
<rect width="20" height="20" fill="white"/>
</clipPath>
</defs>
</svg>
