<svg width="20" height="20" viewBox="0 0 20 20" fill="none" xmlns="http://www.w3.org/2000/svg">
<path fill-rule="evenodd" clip-rule="evenodd" d="M10 4.375C10.3452 4.375 10.625 4.65482 10.625 5V5.49167H10.935C12.3335 5.49167 13.41 6.66715 13.41 8.05833C13.41 8.40351 13.1302 8.68333 12.785 8.68333C12.4398 8.68333 12.16 8.40351 12.16 8.05833C12.16 7.29952 11.5865 6.74167 10.935 6.74167H10.625V9.55346L11.8938 9.99423C12.2681 10.1269 12.674 10.3257 12.9738 10.7082C13.2793 11.098 13.41 11.5939 13.41 12.1917C13.41 13.4432 12.4315 14.5083 11.1683 14.5083H10.625V15C10.625 15.3452 10.3452 15.625 10 15.625C9.65482 15.625 9.375 15.3452 9.375 15V14.5083H9.07667C7.67819 14.5083 6.60167 13.3328 6.60167 11.9417C6.60167 11.5965 6.88149 11.3167 7.22667 11.3167C7.57184 11.3167 7.85167 11.5965 7.85167 11.9417C7.85167 12.7005 8.42514 13.2583 9.07667 13.2583H9.375V10.4425L8.11787 10.0058C7.74359 9.87311 7.3377 9.67428 7.03791 9.29184C6.73232 8.902 6.60167 8.4061 6.60167 7.80833C6.60167 6.55676 7.58015 5.49167 8.84333 5.49167H9.375V5C9.375 4.65482 9.65482 4.375 10 4.375ZM9.375 6.74167H8.84333C8.32318 6.74167 7.85167 7.19324 7.85167 7.80833C7.85167 8.22723 7.94185 8.41883 8.02167 8.52066C8.10712 8.62966 8.2508 8.72649 8.53367 8.82694L9.375 9.11921V6.74167ZM10.625 10.8767V13.2583H11.1683C11.6885 13.2583 12.16 12.8068 12.16 12.1917C12.16 11.7728 12.0698 11.5812 11.99 11.4793C11.9045 11.3703 11.7609 11.2735 11.478 11.1731L10.625 10.8767Z" fill="#888E95"/>
<path fill-rule="evenodd" clip-rule="evenodd" d="M3.46278 3.4631C2.69983 4.22604 2.29167 5.47864 2.29167 7.50033V12.5003C2.29167 14.522 2.69983 15.7746 3.46278 16.5376C4.22572 17.3005 5.47831 17.7087 7.5 17.7087H12.5C14.5217 17.7087 15.7743 17.3005 16.5372 16.5376C17.3002 15.7746 17.7083 14.522 17.7083 12.5003V7.50033C17.7083 5.47864 17.3002 4.22604 16.5372 3.4631C15.7743 2.70016 14.5217 2.29199 12.5 2.29199H7.5C5.47831 2.29199 4.22572 2.70016 3.46278 3.4631ZM2.57889 2.57922C3.69095 1.46716 5.35502 1.04199 7.5 1.04199H12.5C14.645 1.04199 16.3091 1.46716 17.4211 2.57922C18.5332 3.69127 18.9583 5.35535 18.9583 7.50033V12.5003C18.9583 14.6453 18.5332 16.3094 17.4211 17.4214C16.3091 18.5335 14.645 18.9587 12.5 18.9587H7.5C5.35502 18.9587 3.69095 18.5335 2.57889 17.4214C1.46683 16.3094 1.04167 14.6453 1.04167 12.5003V7.50033C1.04167 5.35535 1.46683 3.69127 2.57889 2.57922Z" fill="#888E95"/>
</svg>
