<svg width="20" height="20" viewBox="0 0 20 20" fill="none" xmlns="http://www.w3.org/2000/svg">
<path d="M13.3317 18.96H6.66507C2.81507 18.96 2.0984 17.1683 1.91507 15.4267L1.29007 8.75168C1.1984 7.87668 1.1734 6.58501 2.04007 5.61834C2.79007 4.78501 4.03173 4.38501 5.83173 4.38501H14.1651C15.9734 4.38501 17.2151 4.79334 17.9567 5.61834C18.8234 6.58501 18.7984 7.87668 18.7067 8.76001L18.0817 15.4183C17.8984 17.1683 17.1817 18.96 13.3317 18.96ZM5.83173 5.62668C4.4234 5.62668 3.45673 5.90168 2.96507 6.45168C2.55673 6.90168 2.4234 7.59334 2.53173 8.62668L3.15673 15.3017C3.2984 16.6183 3.65673 17.71 6.66507 17.71H13.3317C16.3317 17.71 16.6984 16.6183 16.8401 15.2933L17.4651 8.63501C17.5734 7.59334 17.4401 6.90168 17.0317 6.45168C16.5401 5.90168 15.5734 5.62668 14.1651 5.62668H5.83173Z" fill="#888E95"/>
<path d="M13.3334 5.62502C12.9917 5.62502 12.7084 5.34169 12.7084 5.00002V4.33335C12.7084 2.85002 12.7084 2.29169 10.6667 2.29169H9.33341C7.29175 2.29169 7.29175 2.85002 7.29175 4.33335V5.00002C7.29175 5.34169 7.00841 5.62502 6.66675 5.62502C6.32508 5.62502 6.04175 5.34169 6.04175 5.00002V4.33335C6.04175 2.86669 6.04175 1.04169 9.33341 1.04169H10.6667C13.9584 1.04169 13.9584 2.86669 13.9584 4.33335V5.00002C13.9584 5.34169 13.6751 5.62502 13.3334 5.62502ZM10.0001 13.9584C7.70841 13.9584 7.70841 12.5417 7.70841 11.6917V10.8334C7.70841 9.65835 7.99175 9.37502 9.16675 9.37502H10.8334C12.0084 9.37502 12.2917 9.65835 12.2917 10.8334V11.6667C12.2917 12.5334 12.2917 13.9584 10.0001 13.9584ZM8.95841 10.625V11.6917C8.95841 12.55 8.95841 12.7084 10.0001 12.7084C11.0417 12.7084 11.0417 12.575 11.0417 11.6834V10.625H8.95841Z" fill="#888E95"/>
<path d="M11.6666 12.3067C11.3583 12.3067 11.0833 12.0733 11.05 11.7567C11.0083 11.415 11.25 11.0983 11.5916 11.0567C13.7916 10.7817 15.9 9.94833 17.675 8.65666C17.95 8.44833 18.3416 8.515 18.55 8.79833C18.75 9.07333 18.6916 9.465 18.4083 9.67333C16.4583 11.09 14.1583 11.9983 11.7416 12.3067H11.6666ZM8.33331 12.3167H8.25831C5.97498 12.0583 3.74998 11.225 1.82498 9.90833C1.68869 9.81491 1.59474 9.67151 1.56354 9.50925C1.53234 9.34699 1.56639 9.17897 1.65831 9.04166C1.84998 8.75833 2.24164 8.68333 2.52498 8.875C4.28331 10.075 6.30831 10.8333 8.39164 11.075C8.73331 11.1167 8.98331 11.425 8.94164 11.7667C8.91664 12.0833 8.64998 12.3167 8.33331 12.3167Z" fill="#888E95"/>
</svg>
