<svg width="20" height="20" viewBox="0 0 20 20" fill="none" xmlns="http://www.w3.org/2000/svg">
<path d="M13.3317 18.96H6.66501C2.815 18.96 2.09834 17.1683 1.915 15.4267L1.29 8.75168C1.19834 7.87668 1.17334 6.58501 2.04 5.61834C2.79 4.78501 4.03167 4.38501 5.83167 4.38501H14.165C15.9733 4.38501 17.215 4.79334 17.9567 5.61834C18.8233 6.58501 18.7983 7.87668 18.7067 8.76001L18.0817 15.4183C17.8983 17.1683 17.1817 18.96 13.3317 18.96ZM5.83167 5.62668C4.42334 5.62668 3.45667 5.90168 2.96501 6.45168C2.55667 6.90168 2.42334 7.59334 2.53167 8.62668L3.15667 15.3017C3.29834 16.6183 3.65667 17.71 6.66501 17.71H13.3317C16.3317 17.71 16.6983 16.6183 16.84 15.2933L17.465 8.63501C17.5733 7.59334 17.44 6.90168 17.0317 6.45168C16.54 5.90168 15.5733 5.62668 14.165 5.62668H5.83167Z" fill="#769428"/>
<path d="M13.3333 5.62502C12.9917 5.62502 12.7083 5.34169 12.7083 5.00002V4.33335C12.7083 2.85002 12.7083 2.29169 10.6667 2.29169H9.33332C7.29166 2.29169 7.29166 2.85002 7.29166 4.33335V5.00002C7.29166 5.34169 7.00832 5.62502 6.66666 5.62502C6.32499 5.62502 6.04166 5.34169 6.04166 5.00002V4.33335C6.04166 2.86669 6.04166 1.04169 9.33332 1.04169H10.6667C13.9583 1.04169 13.9583 2.86669 13.9583 4.33335V5.00002C13.9583 5.34169 13.675 5.62502 13.3333 5.62502ZM9.99999 13.9584C7.70832 13.9584 7.70832 12.5417 7.70832 11.6917V10.8334C7.70832 9.65835 7.99166 9.37502 9.16666 9.37502H10.8333C12.0083 9.37502 12.2917 9.65835 12.2917 10.8334V11.6667C12.2917 12.5334 12.2917 13.9584 9.99999 13.9584ZM8.95832 10.625V11.6917C8.95832 12.55 8.95832 12.7084 9.99999 12.7084C11.0417 12.7084 11.0417 12.575 11.0417 11.6834V10.625H8.95832Z" fill="#769428"/>
<path d="M11.6667 12.3067C11.3583 12.3067 11.0833 12.0733 11.05 11.7567C11.0083 11.415 11.25 11.0983 11.5917 11.0567C13.7917 10.7817 15.9 9.94833 17.675 8.65666C17.95 8.44833 18.3417 8.515 18.55 8.79833C18.75 9.07333 18.6917 9.465 18.4083 9.67333C16.4583 11.09 14.1583 11.9983 11.7417 12.3067H11.6667ZM8.33334 12.3167H8.25834C5.97501 12.0583 3.75001 11.225 1.82501 9.90833C1.68872 9.81491 1.59477 9.67151 1.56357 9.50925C1.53237 9.34699 1.56642 9.17897 1.65834 9.04166C1.85001 8.75833 2.24167 8.68333 2.52501 8.875C4.28334 10.075 6.30834 10.8333 8.39167 11.075C8.73334 11.1167 8.98334 11.425 8.94167 11.7667C8.91667 12.0833 8.65001 12.3167 8.33334 12.3167Z" fill="#769428"/>
</svg>
