<svg width="57" height="53" viewBox="0 0 57 53" fill="none" xmlns="http://www.w3.org/2000/svg">
<path d="M27.2809 1.01825C27.3427 1.01126 27.4032 0.998447 27.4661 0.993205C27.5861 1.01883 27.709 1.00078 27.8307 1.00602C27.9134 1.00136 28.002 1.02407 28.08 0.983887C28.3083 1.02291 28.5418 1.04387 28.7672 1.10328C29.2576 1.22675 29.7422 1.44049 30.1021 1.80449C30.3298 2.03454 30.4952 2.35428 30.4544 2.68567C30.4183 3.03686 30.1662 3.32223 29.8808 3.50744C29.4143 3.80738 28.8528 3.92386 28.3054 3.93842C27.642 3.95123 26.9641 3.81844 26.3817 3.49113C26.0591 3.30476 25.7539 3.04734 25.6083 2.69499C25.4895 2.41543 25.5227 2.07997 25.6921 1.82837C25.9024 1.50863 26.2483 1.30829 26.6007 1.17957C26.8203 1.10037 27.0491 1.04795 27.2809 1.01825Z" fill="#9AC042"/>
<path d="M35.2977 2.58375C35.8015 2.50862 36.3187 2.58026 36.8015 2.73343C37.3024 2.89476 37.7776 3.14403 38.1824 3.4824C38.4829 3.73691 38.7514 4.04325 38.9051 4.41017C39.0129 4.66817 39.0531 4.96694 38.9535 5.23427C38.8504 5.5278 38.5918 5.73921 38.3093 5.85045C37.8283 6.03914 37.2925 6.024 36.7934 5.92266C36.7805 5.92266 36.7555 5.92208 36.7433 5.92208C36.6 6.22843 36.4486 6.53011 36.3018 6.83471C36.2756 6.90343 36.222 6.96342 36.2168 7.03796C37.0403 7.43749 37.7799 8.05775 38.2261 8.86671C38.3105 9.02104 38.3833 9.18237 38.4416 9.34893C38.4532 9.37747 38.4584 9.4229 38.501 9.42057C40.7176 9.81194 42.9342 10.2039 45.1503 10.5959C45.2231 10.6075 45.297 10.6285 45.3727 10.6221C46.3384 10.5405 47.3028 10.8335 48.1403 11.3017C48.9336 11.7496 49.6377 12.3634 50.1677 13.1066C50.622 13.7507 50.958 14.5078 50.9819 15.3057C51.0023 15.8584 50.8305 16.4286 50.4542 16.8404C50.255 17.0704 49.9941 17.2329 49.7262 17.3686C48.6191 18.658 47.516 19.9516 46.41 21.2422C46.8637 22.0016 47.1805 22.8478 47.2947 23.7273C47.417 24.6451 47.3191 25.602 46.9482 26.4541C46.6401 27.1693 46.1345 27.7977 45.498 28.2455C44.9336 28.6439 44.2714 28.8996 43.5883 28.9939C43.5958 31.698 43.6226 34.4027 43.6354 37.1068C43.6471 37.2734 43.6168 37.4446 43.6651 37.6077C43.8655 38.4865 43.8329 39.4178 43.5702 40.2797C43.1649 41.6315 42.1783 42.7916 40.915 43.4142C40.1195 43.8108 39.2202 43.9919 38.3338 43.9436C37.4771 43.8988 36.632 43.6355 35.9023 43.183C34.9931 42.6233 34.2634 41.7759 33.8481 40.7905C33.8307 40.7357 33.7753 40.7119 33.7346 40.6792C32.0555 39.4498 30.377 38.2192 28.6979 36.9891C28.3794 36.7614 28.0684 36.5162 27.7445 36.299C26.8302 36.8983 25.7615 37.2617 24.6694 37.3275C23.9059 37.3776 23.1331 37.2908 22.4016 37.0649C21.8966 38.1044 21.4086 39.1528 20.9094 40.1958C20.7464 40.5476 20.5711 40.8941 20.4144 41.2488C21.3008 41.6909 22.03 42.4457 22.4219 43.3583C22.8797 44.4031 22.8861 45.6361 22.44 46.6855C22.0737 47.5603 21.4022 48.3017 20.5699 48.7531C19.5903 49.293 18.3917 49.4106 17.3236 49.0815C16.3684 48.7921 15.5269 48.148 14.9945 47.3029C14.457 46.4625 14.2403 45.427 14.3836 44.4404C14.5176 43.4759 15.0033 42.5674 15.7249 41.9151C16.5781 41.1318 17.7656 40.7293 18.9182 40.8382C19.1314 40.4207 19.3224 39.9908 19.5274 39.5686C19.8215 38.9501 20.115 38.3304 20.4092 37.7119C20.6054 37.2879 20.8186 36.8703 21.005 36.4423C19.4558 35.5296 18.3352 33.9234 18.0172 32.1511C18.0102 32.115 18.0056 32.0795 17.9869 32.0486C15.3149 31.9508 12.6422 31.8465 9.97014 31.7452C9.85599 31.7266 9.74825 31.7772 9.63701 31.7941C8.90609 31.9397 8.13266 31.9088 7.4297 31.6503C6.65976 31.3719 5.99931 30.7982 5.62774 30.0655C5.31266 29.454 5.19967 28.7487 5.26141 28.0662C5.34877 27.0691 5.78732 26.1215 6.4332 25.3638C6.77333 24.9643 7.17169 24.6148 7.61141 24.3277C7.65159 24.2992 7.69877 24.2794 7.73255 24.2427C7.69353 24.2142 7.65276 24.1879 7.62247 24.1507C8.95676 22.4833 10.2969 20.8199 11.6329 19.1537C11.828 18.9027 12.0412 18.6621 12.2246 18.4053C11.9492 17.7291 11.881 16.9796 11.9829 16.2591C12.0272 15.9231 12.1134 15.594 12.2176 15.272C11.5024 15.0844 10.7826 14.9155 10.0657 14.7356C9.88861 14.6965 9.71447 14.6383 9.53509 14.6121C9.10702 15.2615 8.53859 15.8252 7.8665 16.2189C7.42096 16.4746 6.91485 16.6639 6.39476 16.64C6.03193 16.6284 5.66734 16.47 5.44195 16.1799C5.17987 15.8503 5.10765 15.41 5.13444 14.9988C5.17754 14.3657 5.41924 13.7618 5.74364 13.2225C6.18452 12.5038 6.78497 11.8748 7.51181 11.4438C7.98298 11.1701 8.52403 10.9686 9.07673 11.0158C9.4518 11.0449 9.81756 11.2406 10.022 11.5615C10.2829 11.9616 10.3068 12.4677 10.234 12.9278C10.2252 13.021 10.188 13.1112 10.1868 13.205C11.1018 13.4182 12.0103 13.6599 12.9253 13.873C13.6748 12.7606 14.7686 11.8818 16.019 11.3978C16.5886 10.5394 17.1425 9.66809 17.7062 8.80497C18.083 8.22024 18.4668 7.639 18.8402 7.05194C18.7213 6.54176 18.9316 6.01643 19.2513 5.62273C19.5437 5.25873 19.9194 4.96927 20.3218 4.73748C20.8314 4.44628 21.3893 4.2436 21.9618 4.11897C22.666 3.96638 23.3986 3.92619 24.1115 4.03918C24.6625 4.12945 25.2152 4.31174 25.6566 4.66409C25.7329 4.71768 25.79 4.7963 25.8692 4.84464C27.5279 5.49693 29.1872 6.14572 30.8464 6.79627C30.9181 6.82073 30.9862 6.86091 31.0613 6.87431C32.2168 6.37985 33.5226 6.29016 34.7491 6.53593C34.8213 6.43576 34.8609 6.31229 34.9209 6.20338C35.0607 5.90927 35.2115 5.6204 35.3443 5.32337C34.9885 5.08867 34.6641 4.7963 34.4323 4.43637C34.2704 4.18303 34.1551 3.88659 34.1731 3.58141C34.1853 3.34437 34.2931 3.11549 34.4666 2.95416C34.692 2.73926 34.9966 2.63209 35.2977 2.58375ZM26.0329 6.64892C25.7981 7.06184 25.4411 7.39206 25.0527 7.6588C24.6042 7.9634 24.1045 8.18704 23.5868 8.34371C22.8896 8.55279 22.1552 8.64597 21.4278 8.60055C20.9019 8.56444 20.3742 8.45495 19.8966 8.22606C19.3055 9.12063 18.7283 10.0251 18.1424 10.9237C18.1226 10.9599 18.0801 10.989 18.0877 11.0356C19.1512 11.0513 20.2333 11.4945 20.91 12.3337C21.1558 12.2679 21.3957 12.1806 21.6392 12.1054C23.9904 11.3536 26.3409 10.6011 28.6921 9.84864C28.7119 9.54986 28.7748 9.25342 28.8837 8.97445C29.0293 8.58191 29.2722 8.23596 29.5413 7.91914C28.3939 7.46312 27.2419 7.01816 26.0934 6.56505C26.055 6.57262 26.0544 6.62213 26.0329 6.64892ZM38.547 10.9826C38.4223 11.5772 38.095 12.1159 37.6716 12.5452C37.6233 12.5818 37.6868 12.6255 37.7042 12.6605C38.3239 13.6261 38.9436 14.5923 39.5633 15.5579C40.0863 16.3675 40.5994 17.1846 41.1288 17.9894C42.7228 18.0314 44.2481 18.7856 45.3623 19.909C45.4001 19.9405 45.4257 19.9941 45.4793 20.0028C46.1211 19.237 46.7775 18.4833 47.4251 17.7221C47.4845 17.6429 47.5643 17.5777 47.6115 17.4903C46.5119 17.2469 45.5084 16.6482 44.7076 15.8619C44.0938 15.2487 43.5906 14.5014 43.357 13.6581C43.1922 13.0635 43.1847 12.4042 43.4491 11.837C41.9214 11.5673 40.3938 11.2971 38.8661 11.0268C38.7596 11.0169 38.6536 10.9727 38.547 10.9826ZM28.6484 11.4572C26.3048 12.2079 23.9601 12.9557 21.6171 13.7088L21.6072 13.7298C21.8722 14.7926 21.6718 15.9277 21.2135 16.9079C20.7388 17.9236 19.9782 18.7908 19.0749 19.4472C20.0807 21.2987 21.1028 23.1414 22.1069 24.994C22.5611 24.8484 23.0247 24.7243 23.5006 24.6719C24.2169 24.5886 24.9473 24.6224 25.6508 24.7808C26.6653 25.0062 27.6211 25.4908 28.4061 26.1728C29.1936 26.8553 29.8162 27.7324 30.1836 28.7091C30.2104 28.7091 30.2366 28.7021 30.2611 28.6893C32.5732 27.567 34.8895 26.4535 37.1999 25.3283C36.5796 24.0959 36.3338 22.6434 36.6745 21.2928C36.9122 20.3231 37.4841 19.4338 38.2907 18.8427C38.6471 18.573 39.0531 18.3779 39.4701 18.223C38.4456 16.6272 37.4218 15.0308 36.3979 13.4339C35.957 13.6366 35.4917 13.7851 35.0141 13.8713C33.7666 14.0955 32.4504 13.9499 31.2896 13.4356C30.416 13.046 29.6176 12.4293 29.1283 11.5953C29.073 11.5161 29.048 11.4153 28.9816 11.3472C28.8727 11.3903 28.7591 11.42 28.6484 11.4572ZM13.1408 19.704C12.1483 20.9405 11.1553 22.1769 10.1623 23.4134C10.1385 23.4466 10.0959 23.4722 10.0959 23.5182C10.6632 23.4978 11.2375 23.5904 11.7593 23.8175C12.6224 24.1815 13.3096 24.9358 13.591 25.8303C13.9381 26.9049 13.7447 28.0994 13.2223 29.0836C12.9876 29.5379 12.6708 29.945 12.3248 30.3189C14.1932 30.38 16.0609 30.4662 17.9287 30.5245C17.9922 29.5682 18.2828 28.6288 18.7633 27.8006C19.2525 26.9532 19.9415 26.2246 20.7539 25.6818C19.7516 23.8461 18.7464 22.0109 17.7388 20.1775C16.7715 20.5613 15.687 20.7081 14.6672 20.4577C14.1437 20.329 13.6422 20.0931 13.2258 19.7483C13.199 19.7326 13.1757 19.6901 13.1408 19.704ZM37.0502 27.0918C34.8895 28.1355 32.7305 29.185 30.568 30.2257C30.5605 30.327 30.5855 30.4278 30.5878 30.5303C30.6839 31.8232 30.3723 33.143 29.7032 34.253C29.4871 34.6228 29.2186 34.9589 28.9431 35.2845C30.444 36.3811 31.9396 37.4859 33.4439 38.5779C33.4795 37.4667 33.8872 36.373 34.5866 35.5104C35.1451 34.8162 35.8831 34.2693 36.7112 33.942C37.7893 33.5116 39.0129 33.4627 40.1224 33.8011C40.8574 34.0212 41.5353 34.4149 42.1055 34.9274C42.0985 33.0696 42.0839 31.2117 42.0723 29.3544C42.0647 29.2321 42.0874 29.1011 42.0577 28.9846C40.4852 28.7388 39.0473 27.8466 38.0478 26.6177C37.7095 26.7622 37.3833 26.9357 37.0502 27.0918Z" fill="#9AC042"/>
<path d="M15.2945 5.13416C15.6031 5.12077 15.9258 5.1627 16.1937 5.32694C16.4104 5.45739 16.5705 5.68045 16.6165 5.93089C16.6812 6.25995 16.5851 6.5989 16.4377 6.89244C16.1966 7.36302 15.8192 7.75148 15.3952 8.06015C14.9846 8.35602 14.5205 8.58373 14.0272 8.69905C13.6527 8.78466 13.2526 8.81087 12.8822 8.69032C12.6329 8.60994 12.4046 8.4393 12.2893 8.19993C12.174 7.96639 12.1716 7.69149 12.2316 7.44222C12.3143 7.10094 12.4954 6.7911 12.7144 6.5197C13.012 6.15278 13.3842 5.84993 13.7913 5.61348C14.2502 5.34848 14.7633 5.16212 15.2945 5.13416Z" fill="#9AC042"/>
<path d="M45.272 6.30745C45.7454 6.25678 46.2253 6.33074 46.6773 6.4746C47.2079 6.64699 47.7099 6.9178 48.128 7.28879C48.4227 7.55379 48.6831 7.87469 48.8118 8.255C48.9085 8.53513 48.9067 8.85953 48.753 9.11928C48.5788 9.42155 48.2469 9.59336 47.9172 9.67082C47.3971 9.78904 46.8514 9.72964 46.3436 9.58229C45.8159 9.42563 45.3145 9.1717 44.8881 8.82109C44.5969 8.57881 44.3366 8.28878 44.1741 7.94341C44.0611 7.70172 44.0046 7.42508 44.0641 7.16125C44.1141 6.93178 44.2597 6.73027 44.4496 6.59515C44.689 6.42276 44.9819 6.34064 45.272 6.30745Z" fill="#9AC042"/>
<path d="M29.0456 15.4945C30.1714 15.3775 31.3496 15.7118 32.2098 16.4584C32.9326 17.0734 33.4119 17.9866 33.4399 18.9429C33.4882 19.9441 33.0369 20.9348 32.299 21.6022C31.5395 22.3017 30.504 22.6761 29.4755 22.6662C28.4248 22.6697 27.3683 22.2714 26.6112 21.5358C26.214 21.1537 25.9018 20.6808 25.7207 20.159C25.4988 19.5259 25.4778 18.8241 25.659 18.1782C25.8931 17.3338 26.4697 16.6046 27.2029 16.1352C27.7545 15.777 28.3933 15.5609 29.0456 15.4945Z" fill="#9AC042"/>
<path d="M53.1245 17.6144C53.5264 17.5596 53.9306 17.6802 54.2876 17.859C54.8805 18.1636 55.3749 18.6365 55.7634 19.1741C56.1088 19.658 56.3772 20.2055 56.4966 20.7908C56.5747 21.1874 56.5875 21.6126 56.439 21.9946C56.3254 22.2934 56.0825 22.5438 55.7774 22.644C55.386 22.775 54.9585 22.6923 54.5869 22.5374C53.9865 22.2812 53.4804 21.8403 53.0738 21.3348C52.7623 20.9422 52.5048 20.5037 52.3342 20.0313C52.1688 19.5689 52.0768 19.064 52.1705 18.5759C52.2329 18.2527 52.4082 17.9376 52.6953 17.7652C52.8252 17.686 52.9731 17.6365 53.1245 17.6144Z" fill="#9AC042"/>
<path d="M4.0867 20.4961C4.41634 20.446 4.77568 20.4868 5.05407 20.683C5.31965 20.8659 5.4769 21.1728 5.52582 21.4873C5.59978 21.9585 5.49611 22.4396 5.32489 22.8781C5.04592 23.5735 4.58523 24.1897 4.02088 24.6777C3.64989 24.9934 3.2259 25.2566 2.75765 25.397C2.41403 25.4978 2.03314 25.5298 1.69418 25.3953C1.40647 25.2834 1.18166 25.0365 1.07974 24.747C0.927152 24.3213 0.97491 23.8507 1.09489 23.4232C1.30746 22.6912 1.73961 22.0365 2.276 21.5025C2.77512 21.0179 3.38839 20.6079 4.0867 20.4961Z" fill="#9AC042"/>
<path d="M53.3232 26.2914C53.9342 26.2681 54.5183 26.5419 54.9872 26.9169C55.6925 27.4865 56.191 28.2827 56.4944 29.1312C56.7117 29.7422 56.8287 30.391 56.8153 31.0398C56.799 31.681 56.6563 32.3379 56.2993 32.8796C56.046 33.2669 55.6616 33.5767 55.2108 33.6955C54.6797 33.8417 54.1077 33.7159 53.6337 33.4544C52.8492 33.0199 52.2679 32.2861 51.8795 31.4888C51.59 30.886 51.4025 30.2331 51.3401 29.5674C51.2784 28.8802 51.3471 28.1668 51.6337 27.5337C51.7997 27.1697 52.0472 26.8336 52.3797 26.6059C52.6558 26.4131 52.9872 26.3042 53.3232 26.2914Z" fill="#9AC042"/>
<path d="M7.44018 35.3015C7.90843 35.2362 8.39241 35.3533 8.78961 35.6072C9.27358 35.9136 9.63176 36.3906 9.85599 36.9136C10.2782 37.9124 10.2561 39.0964 9.78086 40.0731C9.53334 40.5774 9.15128 41.0288 8.65216 41.2961C8.24972 41.5145 7.77157 41.5931 7.32195 41.5023C6.8438 41.4091 6.41457 41.1336 6.09192 40.7737C5.68482 40.3212 5.42914 39.7452 5.31616 39.15C5.12746 38.1418 5.32373 37.037 5.95447 36.2147C6.31498 35.7429 6.8438 35.3789 7.44018 35.3015Z" fill="#9AC042"/>
<path d="M48.6564 37.349C49.2493 37.2826 49.8527 37.4935 50.3046 37.8761C51.0501 38.501 51.4351 39.4771 51.4805 40.4346C51.5306 41.4276 51.2289 42.4683 50.5347 43.1975C50.1695 43.5831 49.6814 43.8644 49.1515 43.9319C48.6745 43.9966 48.1794 43.8871 47.7682 43.6384C47.2651 43.3384 46.8818 42.8638 46.6343 42.3373C46.3239 41.6786 46.215 40.9331 46.2889 40.211C46.3617 39.5086 46.6151 38.8155 47.063 38.2651C47.4561 37.7788 48.0257 37.4131 48.6564 37.349Z" fill="#9AC042"/>
<path d="M31.3868 45.2106C32.2674 45.1599 33.1579 45.4931 33.7974 46.1011C34.4846 46.7406 34.8859 47.6701 34.8935 48.6083C34.9109 49.4581 34.6098 50.3119 34.0536 50.9548C33.5464 51.5512 32.8242 51.9647 32.0484 52.08C31.2168 52.2117 30.3391 52.0002 29.6571 51.5064C28.9809 51.0247 28.4952 50.2874 28.3082 49.4784C28.0776 48.5053 28.2756 47.4354 28.8586 46.6206C29.4311 45.8006 30.3845 45.2537 31.3868 45.2106Z" fill="#9AC042"/>
</svg>
