<svg width="64" height="58" viewBox="0 0 64 58" fill="none" xmlns="http://www.w3.org/2000/svg">
<path fill-rule="evenodd" clip-rule="evenodd" d="M32.9418 30.1398C34.3134 29.6895 35.685 29.1978 37.0589 28.6694C37.0772 28.6694 37.0772 28.6694 37.0589 28.6694C38.3133 28.1777 39.4988 27.6792 40.6176 27.1692C40.5786 27.0704 40.5372 26.9831 40.4981 26.905C39.9491 25.7287 39.7239 24.5914 39.8227 23.4932C39.9215 22.3951 40.2937 21.4255 40.9393 20.5824C41.5871 19.7576 42.4694 19.1694 43.5859 18.8179C43.6457 18.8179 43.6939 18.8087 43.733 18.7881C43.2643 17.8277 42.7542 16.8766 42.2052 15.9346C41.5779 14.8571 40.9117 13.8485 40.2041 12.9066C40.1466 12.9273 40.0685 12.9456 39.9697 12.9663C38.9106 13.2213 37.8331 13.2788 36.7349 13.1409C35.6367 13.0054 34.6282 12.6906 33.7069 12.2013C32.7856 11.7303 32.0596 11.1215 31.5289 10.3771C30.4721 10.6137 29.413 10.9078 28.3538 11.2593C27.0397 11.6912 25.7853 12.1714 24.5906 12.6998C24.9421 13.5039 25.011 14.3471 24.7951 15.2293C24.5791 16.1115 24.1288 16.9455 23.4419 17.7289C22.7572 18.533 21.875 19.1993 20.7952 19.73C21.1283 20.8259 21.5419 21.9539 22.0312 23.1119C22.4815 24.2077 22.9824 25.2967 23.5315 26.3742C24.7652 25.9056 26.0012 25.747 27.2373 25.9056C28.471 26.0618 29.5899 26.4937 30.5892 27.199C31.5886 27.9043 32.3629 28.8555 32.912 30.0502C32.912 30.0708 32.9212 30.1007 32.9418 30.1398ZM41.7342 28.7866C40.5188 29.354 39.2345 29.9031 37.8814 30.4338C37.8814 30.4522 37.8814 30.4522 37.8814 30.4338C37.8814 30.4522 37.8814 30.4637 37.8814 30.4637C36.411 31.0312 34.9314 31.5504 33.4404 32.0214C33.5782 33.0805 33.4794 34.1098 33.1463 35.1091C32.8339 36.1085 32.3238 37.0114 31.6185 37.8155C31.9516 38.1487 32.2848 38.4611 32.6179 38.7552C34.0676 40.0877 35.4805 41.1285 36.8521 41.8728C36.8912 41.225 37.0382 40.5794 37.2932 39.9315C37.7251 38.893 38.3431 38.0591 39.1472 37.4319C39.9491 36.8253 40.852 36.4417 41.8513 36.2854C42.8507 36.1476 43.8524 36.2946 44.8518 36.7266C45.5365 37.0206 46.1246 37.4227 46.6163 37.9327C47.0482 36.4233 47.2435 34.6887 47.2044 32.7267C47.2044 32.2948 47.1952 31.8651 47.1745 31.4332C46.1545 31.3735 45.1758 31.1185 44.2338 30.6682C43.3125 30.2179 42.4785 29.5907 41.7342 28.7866ZM23.8554 11.6131C25.0892 11.0824 26.3734 10.6022 27.7059 10.1726C28.8248 9.81882 29.923 9.51556 31.0005 9.26054C30.8236 8.59428 30.8833 7.97626 31.1774 7.4065C31.4508 6.83903 31.931 6.35886 32.6179 5.966C32.48 5.88788 32.3445 5.80977 32.2067 5.73166C30.8925 5.0654 29.6289 4.60361 28.4136 4.34859C28.3929 4.64266 28.2665 4.93674 28.0299 5.23081C27.6393 5.70179 27.0994 6.09465 26.4125 6.40711C25.7278 6.74024 24.972 6.97687 24.1495 7.11242C23.3454 7.25027 22.5505 7.27095 21.767 7.17216C21.4339 7.1331 21.1283 7.06418 20.855 6.96539C20.384 7.71206 20.0325 8.60347 19.7958 9.64191C19.7568 9.8395 19.7177 10.0532 19.6787 10.2898C20.5218 10.2301 21.3053 10.3197 22.0312 10.554C22.7572 10.7883 23.3638 11.1421 23.8554 11.6131ZM43.1747 9.49488C43.2344 10.044 43.1264 10.5632 42.8507 11.0548C42.5773 11.5442 42.1546 11.9646 41.5871 12.3184C42.3315 13.3178 43.0483 14.3861 43.733 15.5234C43.7536 15.5234 43.7536 15.5234 43.733 15.5234C44.3418 16.5228 44.9001 17.5428 45.4101 18.5813C46.352 18.602 47.2825 18.8087 48.2038 19.1993C49.1067 19.5922 49.92 20.1413 50.6437 20.8466C50.8413 20.6697 51.0274 20.4836 51.2043 20.2883C52.1439 19.2889 52.7711 18.3079 53.0859 17.3476C52.5161 17.2488 51.9096 17.0328 51.2617 16.6997C50.4185 16.2678 49.704 15.7485 49.1159 15.142C48.5277 14.5148 48.105 13.8761 47.85 13.2305C47.595 12.5643 47.5559 11.9463 47.7328 11.3765C47.8316 11.0824 47.9878 10.8389 48.2038 10.6413C47.1056 10.2301 45.8512 9.90612 44.4406 9.67178C44.027 9.59367 43.6066 9.53393 43.1747 9.49488ZM18.7666 32.9036C18.8263 31.8054 19.1204 30.7762 19.6488 29.8158C20.1588 28.8348 20.8756 28.0031 21.7969 27.3162C21.2271 26.179 20.7171 25.0325 20.2668 23.8746C19.7774 22.6799 19.3639 21.5128 19.0308 20.3756C18.0314 20.6122 17.0802 20.6697 16.1796 20.5525C15.2974 20.4147 14.5324 20.1114 13.8845 19.6404C13.6892 19.8173 13.5031 19.9942 13.3262 20.1711C12.0534 21.5036 11.0517 22.7971 10.328 24.0515C10.7393 24.0515 11.1505 24.1113 11.5618 24.2284C12.3866 24.5018 13.0229 24.9728 13.4732 25.6391C13.9442 26.3076 14.2084 27.1002 14.2682 28.0215C14.3256 28.9244 14.1602 29.8549 13.7673 30.8152C13.5123 31.385 13.209 31.895 12.8552 32.3453C14.2475 32.7359 15.9338 32.9335 17.9142 32.9335C18.1876 32.9335 18.4725 32.9243 18.7666 32.9036ZM33.7345 15.5234C32.9717 15.289 32.2067 15.2109 31.4416 15.289C30.6972 15.3855 30.0103 15.6314 29.3831 16.0242C28.7743 16.3964 28.3056 16.8973 27.9725 17.5245C27.6393 18.1907 27.5199 18.857 27.6186 19.5232C27.7358 20.2102 28.0299 20.8259 28.5009 21.375C28.9718 21.9057 29.599 22.3169 30.3825 22.611C31.1866 22.8844 31.9907 22.974 32.7948 22.8752C33.5782 22.7971 34.2835 22.5421 34.9107 22.1102C35.538 21.6989 36.0089 21.1498 36.3237 20.4652C36.7349 19.4451 36.6959 18.4733 36.2065 17.552C35.7149 16.6308 34.8924 15.9553 33.7345 15.5234ZM29.7369 0.0270884C29.05 0.0661455 28.4917 0.183315 28.0598 0.378598C27.6278 0.576179 27.4234 0.789842 27.4417 1.02648C27.5199 1.2815 27.8346 1.47678 28.3837 1.61463C28.9328 1.75247 29.5899 1.79153 30.3526 1.7318C31.0993 1.67206 31.6759 1.5457 32.0895 1.35042C32.5191 1.15284 32.6868 0.927688 32.588 0.672672C32.4502 0.438332 32.1171 0.261428 31.5886 0.144258C31.0602 0.00641136 30.4422 -0.032645 29.7369 0.0270884ZM13.9741 4.7024C13.3469 5.05391 12.9058 5.4169 12.6508 5.78909C12.4141 6.16358 12.4141 6.45765 12.6508 6.67131C12.9448 6.88727 13.4043 6.93782 14.0315 6.81835C14.6587 6.70118 15.3158 6.45765 16.0027 6.08317C16.6506 5.6926 17.0917 5.30892 17.3261 4.93674C17.542 4.56455 17.503 4.27967 17.2089 4.08438C16.8941 3.90748 16.4347 3.87761 15.8258 3.99708C15.2193 4.11425 14.6013 4.34859 13.9741 4.7024ZM0.00559317 24.9337C-0.0334633 25.6781 0.131953 26.2272 0.50414 26.581C0.897003 26.9532 1.42542 27.0313 2.09398 26.8154C2.77862 26.542 3.36676 26.0526 3.85842 25.345C4.34777 24.6603 4.62117 23.9137 4.6809 23.1119C4.71996 22.3468 4.52468 21.8069 4.09276 21.4945C3.68151 21.1613 3.1508 21.1315 2.50522 21.4049C1.85734 21.6806 1.30825 22.1492 0.857947 22.8178C0.38697 23.484 0.102086 24.1894 0.00559317 24.9337ZM4.65104 43.55C5.16107 44.3334 5.79746 44.7837 6.56252 44.9009C7.34824 45.0387 8.07194 44.8136 8.7382 44.2254C9.1908 43.8142 9.51244 43.3133 9.71002 42.7252C9.9053 42.1577 9.97423 41.5581 9.9145 40.9309C9.85706 40.3037 9.65029 39.727 9.29878 39.1963C8.76807 38.4313 8.111 38.0016 7.32757 37.9028C6.56252 37.8247 5.84801 38.0889 5.18175 38.6978C4.57292 39.325 4.21912 40.0992 4.12262 41.0205C4.02383 41.9211 4.20074 42.7642 4.65104 43.55ZM35.3817 57.0176C36.4202 56.8407 37.245 56.3606 37.8515 55.5771C38.4603 54.8121 38.7153 53.9207 38.6165 52.9006C38.4787 51.8621 38.01 51.0489 37.2059 50.4607C36.4202 49.8726 35.4897 49.6451 34.4122 49.783C33.3531 49.9599 32.5099 50.4492 31.8827 51.2533C31.2739 52.0391 31.0304 52.9488 31.1475 53.9896C31.3244 54.989 31.8138 55.7724 32.6179 56.3422C33.4013 56.9096 34.3226 57.1348 35.3817 57.0176ZM56.3207 47.1064C56.9663 46.4608 57.3499 45.6751 57.4671 44.7538C57.5659 43.8326 57.3798 42.9802 56.9088 42.1968C56.3988 41.411 55.7417 40.9607 54.9376 40.8436C54.1542 40.7264 53.4098 40.9607 52.7022 41.5489C52.2335 41.9808 51.8889 42.4909 51.6729 43.079C51.4777 43.6671 51.4087 44.2737 51.4685 44.9009C51.5259 45.5281 51.7327 46.107 52.0865 46.6377C52.6356 47.4005 53.3018 47.8232 54.0853 47.9013C54.8894 48.0001 55.6337 47.7336 56.3207 47.1064ZM62.5261 20.6398C62.2504 19.9345 61.8392 19.3165 61.2901 18.7881C60.741 18.2596 60.1827 17.9357 59.6129 17.8185C59.0248 17.7381 58.6227 17.915 58.4091 18.347C58.1724 18.7582 58.1724 19.3372 58.4091 20.0815C58.6825 20.8673 59.1144 21.5335 59.7025 22.0826C60.27 22.6317 60.8581 22.9441 61.467 23.0223C62.0161 23.0613 62.3882 22.8568 62.5835 22.4042C62.7811 21.9539 62.7604 21.3658 62.5261 20.6398ZM52.6448 6.99525C52.0957 6.56333 51.5167 6.2302 50.9102 5.99586C50.283 5.76152 49.7615 5.68111 49.3502 5.76152C48.939 5.85802 48.7827 6.09465 48.8792 6.46684C48.978 6.85741 49.302 7.28933 49.8511 7.7603C50.4392 8.23128 51.0572 8.58279 51.7028 8.81943C52.3507 9.05377 52.8791 9.1135 53.2903 8.99633C53.6442 8.85848 53.7613 8.60347 53.6442 8.23128C53.527 7.85909 53.1939 7.44555 52.6448 6.99525ZM19.2375 35.8742C19.0997 35.5411 18.9917 35.1964 18.9136 34.8449C18.5414 34.8633 18.1692 34.8748 17.797 34.8748C15.1504 34.8748 12.9747 34.5118 11.2677 33.7858C10.6014 34.1787 9.91449 34.4222 9.20918 34.521C8.50386 34.6198 7.82841 34.5302 7.18053 34.2568C6.43616 33.9237 5.8572 33.4136 5.44595 32.7267C5.03471 32.042 4.81875 31.2655 4.79807 30.404C4.75902 29.5217 4.93592 28.6303 5.32878 27.7274C5.68029 26.9624 6.13059 26.2961 6.67969 25.7287C7.24945 25.1589 7.86747 24.7385 8.53373 24.4628C9.33784 22.7581 10.5922 21.0419 12.297 19.3165C12.5129 19.0821 12.7381 18.8662 12.9747 18.6709C12.7978 18.3952 12.6599 18.1011 12.5612 17.7887C12.2671 16.7502 12.3751 15.6911 12.8851 14.6113C11.6514 14.377 10.4544 14.1909 9.29878 14.053C8.8278 14.5837 8.26952 15.0432 7.62164 15.4361C6.71874 15.9461 5.95599 16.1621 5.32878 16.0817C4.70158 16.0242 4.34777 15.6796 4.26966 15.0524C4.2306 14.4643 4.46494 13.8187 4.97498 13.1134C5.48501 12.3874 6.14208 11.7694 6.94619 11.2593C7.78935 10.77 8.53373 10.5333 9.17931 10.554C9.82719 10.5747 10.2201 10.8573 10.3556 11.4064C10.4544 11.8176 10.3763 12.2886 10.1213 12.8193C11.2769 12.9548 12.4739 13.1226 13.7099 13.3178C14.4933 12.3575 15.5318 11.5833 16.8252 10.9951C17.2571 10.8182 17.6799 10.6712 18.0911 10.554C18.1302 10.299 18.1784 10.0532 18.2382 9.81882C18.5713 8.46562 19.1112 7.31919 19.8556 6.37724C19.5799 6.08317 19.4627 5.76152 19.5018 5.40772C19.5408 5.03553 19.7476 4.66334 20.1198 4.29115C20.5126 3.89829 21.0319 3.55597 21.6774 3.2619C22.3253 2.96782 23.0214 2.76105 23.7658 2.64388C24.4918 2.50604 25.2063 2.46698 25.9139 2.52671C27.0512 2.66226 27.8139 2.9862 28.2068 3.49624C29.8334 3.69152 31.5197 4.23142 33.2658 5.11364C33.4611 5.21243 33.6563 5.32041 33.8539 5.43758C34.0676 5.35947 34.2835 5.29974 34.4995 5.26068C35.793 5.02634 37.0887 5.07459 38.3822 5.40772C38.7934 4.7024 39.1955 4.06371 39.5884 3.49624C38.9198 3.2619 38.4006 2.97701 38.0284 2.64388C37.6171 2.23264 37.5298 1.88802 37.7642 1.61463C37.9985 1.33893 38.4994 1.1919 39.2644 1.17352C40.0295 1.15284 40.8221 1.27001 41.6469 1.52503C42.4487 1.76166 43.0966 2.06493 43.5859 2.43711C44.0776 2.84836 44.243 3.20216 44.0868 3.49624C43.9099 3.81099 43.4389 3.98559 42.6761 4.02465C42.1454 4.06371 41.5871 4.02465 40.999 3.90748C40.6452 4.5163 40.2638 5.17338 39.8526 5.87869C40.9117 6.32899 41.7549 6.94701 42.3821 7.73044C42.5773 7.96707 42.7336 8.19222 42.8507 8.40818C43.3217 8.46562 43.7927 8.53454 44.2637 8.61266C46.1843 8.94579 47.8799 9.44663 49.3502 10.1129C49.8005 10.0348 50.322 10.044 50.9102 10.1428C51.4777 10.2599 52.0658 10.4851 52.6746 10.8182C53.7912 11.427 54.6734 12.2013 55.3213 13.1409C55.9669 14.0622 56.2426 14.9352 56.1438 15.76C55.9876 16.5618 55.5074 17.0719 54.7033 17.2878C54.5057 18.6801 53.782 20.0815 52.5276 21.4945C52.291 21.7495 52.0474 22.0022 51.7924 22.2572C51.9096 22.4548 52.0268 22.6593 52.1439 22.8752C52.4977 23.5805 52.7321 24.2882 52.8492 24.9935C52.9687 25.6988 52.9687 26.3857 52.8492 27.052C54.3196 27.817 55.7509 28.6005 57.1432 29.4046C57.4189 28.7176 57.8784 28.2467 58.5262 27.9916C59.2913 27.7182 60.0747 27.8354 60.8788 28.3455C61.6623 28.8348 62.2803 29.6091 62.7306 30.6682C63.1234 31.7273 63.2222 32.7267 63.0246 33.6686C62.8087 34.629 62.3492 35.3044 61.6439 35.6973C60.8398 36.0695 60.0265 36.0212 59.2017 35.5503C58.3585 35.0609 57.7015 34.2568 57.2328 33.1379C56.9387 32.4142 56.8008 31.6974 56.8192 30.9921C55.3695 30.188 53.8693 29.3839 52.3208 28.5798C51.7717 29.678 50.8803 30.4913 49.6443 31.022C49.41 31.1001 49.1733 31.169 48.939 31.2265C48.978 31.7755 49.0079 32.3154 49.0263 32.8439C49.0653 35.5893 48.7046 37.9511 47.9396 39.9315C48.213 40.6368 48.3508 41.372 48.3508 42.137C48.3715 42.9021 48.2337 43.658 47.9396 44.4023C47.5283 45.4224 46.9287 46.2449 46.1453 46.8721C45.3618 47.4993 44.4796 47.9013 43.4986 48.0782C42.5176 48.2345 41.5274 48.1265 40.528 47.7543C39.7239 47.4212 39.0485 46.9594 38.4994 46.3712C37.9319 45.7647 37.5092 45.0778 37.2358 44.3127C35.2554 43.4902 33.2543 42.1462 31.2348 40.2853C30.8443 39.9131 30.4514 39.5294 30.0585 39.1389C29.707 39.3939 29.3142 39.5984 28.8822 39.7546C28.0988 40.0877 27.2947 40.2853 26.4722 40.3427C25.6681 40.4025 24.8732 40.3335 24.0898 40.1383C23.3638 41.9808 22.6401 43.8234 21.9141 45.6659C22.6584 46.176 23.2282 46.8721 23.6188 47.7543C23.9519 48.5768 24.0806 49.3924 24.0025 50.1942C23.9037 51.019 23.6188 51.745 23.1478 52.3722C22.6791 53.0178 22.0519 53.4979 21.2662 53.8127C20.5011 54.1068 19.7269 54.1849 18.9435 54.047C18.1784 53.9092 17.4731 53.5967 16.8252 53.1074C16.198 52.6157 15.7087 51.9793 15.3549 51.1959C15.0217 50.3918 14.8954 49.5877 14.9735 48.7836C15.0516 48.0001 15.3066 47.2833 15.7385 46.6377C16.1888 45.9899 16.7862 45.5005 17.5328 45.1674C18.376 44.8136 19.2284 44.7148 20.0899 44.8733C20.7952 43.0491 21.5212 41.225 22.2656 39.4031C21.5809 39.0102 20.9813 38.5209 20.4736 37.9327C19.9429 37.3239 19.5316 36.6392 19.2375 35.8742Z" fill="white"/>
</svg>
