<svg width="10" height="12" viewBox="0 0 10 12" fill="none" xmlns="http://www.w3.org/2000/svg">
<path fill-rule="evenodd" clip-rule="evenodd" d="M0.0020752 1.2129C0.0020752 1.07958 0.055318 0.951782 0.149974 0.857899L0.849974 0.147899C0.943858 0.0532428 1.07166 0 1.20497 0C1.33829 0 1.46609 0.0532428 1.55997 0.147899L4.99997 3.5979L8.43997 0.147899C8.53214 0.0538347 8.65828 0.000827348 8.78997 0.000827342C8.92166 0.000827336 9.04781 0.0538347 9.13997 0.147899L9.84997 0.857899C9.94463 0.951782 9.99787 1.07958 9.99787 1.2129C9.99787 1.34622 9.94463 1.47402 9.84997 1.5679L5.71997 5.7079C5.57825 5.84678 5.38839 5.9256 5.18997 5.9279H4.80997C4.61113 5.92772 4.42049 5.84859 4.27997 5.7079L0.149974 1.5679C0.055318 1.47402 0.0020752 1.34622 0.0020752 1.2129ZM8.79497 6.0721C8.92829 6.0721 9.05609 6.12534 9.14997 6.22L9.84997 6.93C9.94463 7.02388 9.99787 7.15168 9.99787 7.285C9.99787 7.41832 9.94463 7.54612 9.84997 7.64L5.71997 11.78C5.57946 11.9207 5.38882 11.9998 5.18997 12H4.80997C4.61156 11.9977 4.4217 11.9189 4.27997 11.78L0.149975 7.65C0.0553183 7.55612 0.0020752 7.42832 0.0020752 7.295C0.0020752 7.16168 0.0553183 7.03388 0.149975 6.94L0.859975 6.23C0.952138 6.13594 1.07828 6.08293 1.20997 6.08293C1.34166 6.08293 1.46781 6.13594 1.55997 6.23L4.99997 9.67L8.43997 6.22C8.53386 6.12534 8.66166 6.0721 8.79497 6.0721Z" fill="#888E95"/>
</svg>
