<svg width="20" height="20" viewBox="0 0 20 20" fill="none" xmlns="http://www.w3.org/2000/svg">
<path fill-rule="evenodd" clip-rule="evenodd" d="M3.00091 6.68154C2.56651 7.11515 2.29167 7.75842 2.29167 8.59128V15.0663C2.29167 15.8991 2.56651 16.5424 3.00091 16.976C3.43549 17.4098 4.07908 17.6829 4.90833 17.6829H10.0917C10.9209 17.6829 11.5645 17.4098 11.9991 16.976C12.4335 16.5424 12.7083 15.8991 12.7083 15.0663V10.5748C12.7083 10.5747 12.7083 10.5749 12.7083 10.5748C12.708 9.88113 12.4323 9.21573 11.9418 8.72526C11.9417 8.72517 11.9419 8.72535 11.9418 8.72526L9.95065 6.74248L9.94973 6.74155C9.45848 6.25031 8.7924 5.97461 8.1 5.97461H4.90833C4.07908 5.97461 3.43549 6.24776 3.00091 6.68154ZM13.9583 10.5746V15.0663C13.9583 16.1834 13.5832 17.161 12.8822 17.8607C12.1813 18.5603 11.2041 18.9329 10.0917 18.9329H4.90833C3.79592 18.9329 2.81867 18.5603 2.11784 17.8607C1.41683 17.161 1.04167 16.1834 1.04167 15.0663V8.59128C1.04167 7.47413 1.41683 6.49657 2.11784 5.79685C2.81867 5.0973 3.79592 4.72461 4.90833 4.72461H8.1C9.12404 4.72461 10.1077 5.13206 10.8331 5.85718C10.8333 5.85734 10.833 5.85702 10.8331 5.85718L12.8252 7.8409C13.5504 8.56578 13.958 9.54924 13.9583 10.5746Z" fill="#888E95"/>
<path fill-rule="evenodd" clip-rule="evenodd" d="M7.29508 4.72493H8.1C9.12513 4.72528 10.1084 5.13268 10.8332 5.85758C10.8334 5.85775 10.833 5.8574 10.8332 5.85758L12.8253 7.84133C13.5507 8.56675 13.9583 9.55067 13.9583 10.5749V13.9833H15.0917C15.9198 13.9833 16.5635 13.7088 16.9987 13.2736C17.4338 12.8385 17.7083 12.1947 17.7083 11.3666V6.87514C17.7083 6.87507 17.7083 6.87521 17.7083 6.87514C17.708 6.18132 17.4322 5.51581 16.9415 5.02531L14.9497 3.03354C14.4585 2.5423 13.7924 2.2666 13.1 2.2666H9.90833C9.08021 2.2666 8.43646 2.54111 8.00132 2.97625C7.59431 3.38326 7.32784 3.97276 7.29508 4.72493ZM7.11743 2.09237C7.81771 1.3921 8.79479 1.0166 9.90833 1.0166H13.1C14.1243 1.0166 15.1082 1.42424 15.8336 2.14966L17.8252 4.14122C18.5504 4.8661 18.958 5.84935 18.9583 6.87473V11.3666C18.9583 12.4801 18.5828 13.4572 17.8826 14.1575C17.1823 14.8578 16.2052 15.2333 15.0917 15.2333H13.3333C12.9882 15.2333 12.7083 14.9534 12.7083 14.6083V10.5749C12.7083 9.88278 12.4328 9.21692 11.9419 8.72572C11.9417 8.72555 11.9421 8.72589 11.9419 8.72572L9.95065 6.7428L9.94962 6.74177C9.45913 6.25105 8.79382 5.97522 8.1 5.97494C8.09993 5.97494 8.10007 5.97494 8.1 5.97494H6.66667C6.32149 5.97494 6.04167 5.69511 6.04167 5.34994V4.88327C6.04167 3.76973 6.41716 2.79264 7.11743 2.09237Z" fill="#888E95"/>
</svg>
