<svg width="18" height="18" viewBox="0 0 18 18" fill="none" xmlns="http://www.w3.org/2000/svg">
<path d="M17.8751 16.6451L12.0782 10.8482C12.9778 9.68525 13.4644 8.26338 13.4644 6.76784C13.4644 4.97766 12.7657 3.29909 11.5023 2.03346C10.2389 0.76784 8.55591 0.0714111 6.76796 0.0714111C4.98002 0.0714111 3.29698 0.770072 2.03359 2.03346C0.767962 3.29686 0.0715332 4.97766 0.0715332 6.76784C0.0715332 8.55579 0.770194 10.2388 2.03359 11.5022C3.29698 12.7678 4.97778 13.4643 6.76796 13.4643C8.2635 13.4643 9.68314 12.9777 10.8461 12.0803L16.643 17.875C16.66 17.892 16.6801 17.9055 16.7024 17.9147C16.7246 17.9239 16.7484 17.9286 16.7724 17.9286C16.7965 17.9286 16.8203 17.9239 16.8425 17.9147C16.8647 17.9055 16.8849 17.892 16.9019 17.875L17.8751 16.904C17.8921 16.887 17.9056 16.8668 17.9148 16.8446C17.924 16.8224 17.9288 16.7986 17.9288 16.7745C17.9288 16.7505 17.924 16.7267 17.9148 16.7045C17.9056 16.6823 17.8921 16.6621 17.8751 16.6451ZM10.3037 10.3036C9.35725 11.2478 8.10278 11.7678 6.76796 11.7678C5.43314 11.7678 4.17868 11.2478 3.23225 10.3036C2.28805 9.35713 1.76796 8.10266 1.76796 6.76784C1.76796 5.43302 2.28805 4.17632 3.23225 3.23213C4.17868 2.28793 5.43314 1.76784 6.76796 1.76784C8.10278 1.76784 9.35948 2.2857 10.3037 3.23213C11.2479 4.17855 11.768 5.43302 11.768 6.76784C11.768 8.10266 11.2479 9.35936 10.3037 10.3036Z" fill="#888E95"/>
</svg>
