<svg width="20" height="20" viewBox="0 0 20 20" fill="none" xmlns="http://www.w3.org/2000/svg">
<path fill-rule="evenodd" clip-rule="evenodd" d="M2.94194 3.77528C2.5157 4.20152 2.29167 4.99553 2.29167 6.66667V13.3333C2.29167 15.0045 2.5157 15.7985 2.94194 16.2247C3.36819 16.651 4.1622 16.875 5.83333 16.875H14.1667C15.8378 16.875 16.6318 16.651 17.0581 16.2247C17.4843 15.7985 17.7083 15.0045 17.7083 13.3333V6.66667C17.7083 4.99553 17.4843 4.20152 17.0581 3.77528C16.6318 3.34903 15.8378 3.125 14.1667 3.125H5.83333C4.1622 3.125 3.36819 3.34903 2.94194 3.77528ZM2.05806 2.89139C2.88181 2.06764 4.17113 1.875 5.83333 1.875H14.1667C15.8289 1.875 17.1182 2.06764 17.9419 2.89139C18.7657 3.71515 18.9583 5.00447 18.9583 6.66667V13.3333C18.9583 14.9955 18.7657 16.2849 17.9419 17.1086C17.1182 17.9324 15.8289 18.125 14.1667 18.125H5.83333C4.17113 18.125 2.88181 17.9324 2.05806 17.1086C1.2343 16.2849 1.04167 14.9955 1.04167 13.3333V6.66667C1.04167 5.00447 1.2343 3.71515 2.05806 2.89139ZM11.0417 6.66667C11.0417 6.32149 11.3215 6.04167 11.6667 6.04167H15.8333C16.1785 6.04167 16.4583 6.32149 16.4583 6.66667C16.4583 7.01184 16.1785 7.29167 15.8333 7.29167H11.6667C11.3215 7.29167 11.0417 7.01184 11.0417 6.66667ZM11.875 10C11.875 9.65482 12.1548 9.375 12.5 9.375H15.8333C16.1785 9.375 16.4583 9.65482 16.4583 10C16.4583 10.3452 16.1785 10.625 15.8333 10.625H12.5C12.1548 10.625 11.875 10.3452 11.875 10ZM13.5417 13.3333C13.5417 12.9882 13.8215 12.7083 14.1667 12.7083H15.8333C16.1785 12.7083 16.4583 12.9882 16.4583 13.3333C16.4583 13.6785 16.1785 13.9583 15.8333 13.9583H14.1667C13.8215 13.9583 13.5417 13.6785 13.5417 13.3333Z" fill="#888E95"/>
<path fill-rule="evenodd" clip-rule="evenodd" d="M5.57484 6.39144C5.97492 5.99136 6.51754 5.7666 7.08333 5.7666C7.64913 5.7666 8.19175 5.99136 8.59183 6.39144C8.9919 6.79152 9.21667 7.33414 9.21667 7.89993C9.21667 8.46573 8.99191 9.00835 8.59183 9.40843C8.19175 9.80851 7.64913 10.0333 7.08333 10.0333C6.51754 10.0333 5.97492 9.80851 5.57484 9.40843C5.17476 9.00835 4.95 8.46573 4.95 7.89993C4.95 7.33414 5.17476 6.79152 5.57484 6.39144ZM7.08333 7.0166C6.84906 7.0166 6.62438 7.10967 6.45872 7.27532C6.29306 7.44098 6.2 7.66566 6.2 7.89993C6.2 8.13421 6.29307 8.35889 6.45872 8.52455C6.62438 8.6902 6.84906 8.78327 7.08333 8.78327C7.31761 8.78327 7.54229 8.6902 7.70794 8.52455C7.8736 8.35889 7.96667 8.13421 7.96667 7.89993C7.96667 7.66566 7.8736 7.44098 7.70794 7.27532C7.54229 7.10967 7.31761 7.0166 7.08333 7.0166ZM7.7751 10.7193C8.50458 10.7847 9.18834 11.1028 9.70816 11.6189C10.2288 12.1357 10.5521 12.8184 10.6221 13.5486C10.6551 13.8922 10.4033 14.1975 10.0597 14.2304C9.71605 14.2634 9.4108 14.0115 9.37785 13.6679C9.33569 13.2282 9.141 12.8172 8.82752 12.506C8.51405 12.1948 8.10156 12.0031 7.66157 11.9642L7.65513 11.9636L7.65514 11.9636C7.27486 11.9259 6.8918 11.9259 6.51153 11.9636L6.5068 11.964L6.5068 11.964C6.06676 12.0042 5.65448 12.1964 5.3409 12.5077C5.02731 12.819 4.83203 13.2299 4.78865 13.6696C4.75476 14.0131 4.44882 14.2641 4.10531 14.2302C3.7618 14.1964 3.5108 13.8904 3.54469 13.5469C3.6166 12.8179 3.94036 12.1367 4.46026 11.6206C4.97956 11.1051 5.66212 10.7865 6.39072 10.7194C6.85106 10.674 7.31476 10.674 7.7751 10.7193Z" fill="#888E95"/>
</svg>
