<svg width="20" height="20" viewBox="0 0 20 20" fill="none" xmlns="http://www.w3.org/2000/svg">
<path fill-rule="evenodd" clip-rule="evenodd" d="M10 4.375C6.32018 4.375 3.33333 7.36185 3.33333 11.0417C3.33333 14.7215 6.32018 17.7083 10 17.7083C13.6798 17.7083 16.6667 14.7215 16.6667 11.0417C16.6667 7.36185 13.6798 4.375 10 4.375ZM2.08333 11.0417C2.08333 6.67149 5.62982 3.125 10 3.125C14.3702 3.125 17.9167 6.67149 17.9167 11.0417C17.9167 15.4118 14.3702 18.9583 10 18.9583C5.62982 18.9583 2.08333 15.4118 2.08333 11.0417ZM10 6.04167C10.3452 6.04167 10.625 6.32149 10.625 6.66667V10.8333C10.625 11.1785 10.3452 11.4583 10 11.4583C9.65482 11.4583 9.375 11.1785 9.375 10.8333V6.66667C9.375 6.32149 9.65482 6.04167 10 6.04167Z" fill="#888E95"/>
<path fill-rule="evenodd" clip-rule="evenodd" d="M6.875 1.66699C6.875 1.32181 7.15482 1.04199 7.5 1.04199H12.5C12.8452 1.04199 13.125 1.32181 13.125 1.66699C13.125 2.01217 12.8452 2.29199 12.5 2.29199H7.5C7.15482 2.29199 6.875 2.01217 6.875 1.66699Z" fill="#888E95"/>
</svg>
