<svg width="21" height="20" viewBox="0 0 21 20" fill="none" xmlns="http://www.w3.org/2000/svg">
<path d="M8.0002 14.7898C7.65853 14.7898 7.3752 14.5065 7.3752 14.1648V10.6731L6.7752 11.2731C6.53353 11.5148 6.13353 11.5148 5.89187 11.2731C5.77563 11.1555 5.71045 10.9968 5.71045 10.8315C5.71045 10.6661 5.77563 10.5074 5.89187 10.3898L7.55853 8.72312C7.73353 8.54812 8.00853 8.48979 8.24187 8.58979C8.4752 8.68145 8.6252 8.91479 8.6252 9.16479V14.1648C8.6252 14.5065 8.34187 14.7898 8.0002 14.7898Z" fill="#888E95"/>
<path d="M9.6667 11.459C9.50837 11.459 9.35004 11.4007 9.22504 11.2757L7.55837 9.60902C7.44214 9.4914 7.37695 9.33271 7.37695 9.16735C7.37695 9.00199 7.44214 8.8433 7.55837 8.72568C7.80004 8.48402 8.20004 8.48402 8.4417 8.72568L10.1084 10.3924C10.35 10.634 10.35 11.034 10.1084 11.2757C9.98337 11.4007 9.82504 11.459 9.6667 11.459Z" fill="#888E95"/>
<path d="M12.9998 18.9582H7.99984C3.47484 18.9582 1.5415 17.0248 1.5415 12.4998V7.49984C1.5415 2.97484 3.47484 1.0415 7.99984 1.0415H12.1665C12.5082 1.0415 12.7915 1.32484 12.7915 1.6665C12.7915 2.00817 12.5082 2.2915 12.1665 2.2915H7.99984C4.15817 2.2915 2.7915 3.65817 2.7915 7.49984V12.4998C2.7915 16.3415 4.15817 17.7082 7.99984 17.7082H12.9998C16.8415 17.7082 18.2082 16.3415 18.2082 12.4998V8.33317C18.2082 7.9915 18.4915 7.70817 18.8332 7.70817C19.1748 7.70817 19.4582 7.9915 19.4582 8.33317V12.4998C19.4582 17.0248 17.5248 18.9582 12.9998 18.9582Z" fill="#888E95"/>
<path d="M18.8332 8.95645H15.4998C12.6498 8.95645 11.5415 7.84812 11.5415 4.99812V1.66479C11.5415 1.41479 11.6915 1.18145 11.9248 1.08979C12.1582 0.989785 12.4248 1.04812 12.6082 1.22312L19.2748 7.88979C19.3617 7.97734 19.4208 8.08863 19.4447 8.20966C19.4685 8.33069 19.456 8.45607 19.4088 8.57005C19.3617 8.68402 19.2818 8.7815 19.1794 8.85025C19.077 8.919 18.9565 8.95595 18.8332 8.95645ZM12.7915 3.17312V4.99812C12.7915 7.14812 13.3498 7.70645 15.4998 7.70645H17.3248L12.7915 3.17312Z" fill="#888E95"/>
</svg>
