<svg width="103" height="21" viewBox="0 0 103 21" fill="none" xmlns="http://www.w3.org/2000/svg">
<path d="M10.4124 20.9956C9.12035 20.9956 7.90102 20.7376 6.75436 20.2216C5.62385 19.6889 4.62254 18.9648 3.75043 18.0493C2.87832 17.1171 2.19194 16.0518 1.69129 14.8533C1.19063 13.6381 0.940308 12.3481 0.940308 10.9831C0.940308 9.6348 1.18256 8.3614 1.66706 7.1629C2.15157 5.94775 2.8218 4.88241 3.67776 3.96689C4.54986 3.03472 5.55925 2.31063 6.7059 1.79461C7.85256 1.26194 9.08805 0.995605 10.4124 0.995605C11.5267 0.995605 12.5846 1.17871 13.5859 1.54492C14.5872 1.91113 15.5239 2.46876 16.396 3.21783C16.5413 3.33435 16.614 3.50081 16.614 3.7172C16.614 3.91695 16.5494 4.10006 16.4202 4.26652C16.291 4.41633 16.1134 4.49124 15.8873 4.49124C15.8227 4.49124 15.7581 4.48291 15.6935 4.46627C15.6289 4.43297 15.5643 4.39968 15.4997 4.36639C15.4351 4.31645 15.3624 4.25819 15.2816 4.19161C14.6356 3.59236 13.9008 3.15957 13.0771 2.89323C12.2535 2.6269 11.3652 2.49373 10.4124 2.49373C9.3303 2.49373 8.30477 2.72678 7.33576 3.19286C6.36675 3.6423 5.5108 4.26652 4.76789 5.06552C4.02498 5.84787 3.44358 6.74675 3.02367 7.76215C2.60377 8.77754 2.39382 9.8512 2.39382 10.9831C2.39382 12.1483 2.60377 13.247 3.02367 14.279C3.44358 15.311 4.01691 16.2182 4.74366 17.0006C5.48657 17.783 6.34253 18.3988 7.31154 18.8483C8.28054 19.2811 9.31415 19.4975 10.4124 19.4975C11.3652 19.4975 12.2535 19.3477 13.0771 19.048C13.9169 18.7484 14.7002 18.2907 15.427 17.6748C15.5562 17.5582 15.7096 17.5166 15.8873 17.5499C16.0649 17.5832 16.2183 17.6664 16.3475 17.7996C16.4767 17.9328 16.5413 18.1075 16.5413 18.3239C16.5413 18.4238 16.5333 18.5154 16.5171 18.5986C16.501 18.6818 16.4525 18.7651 16.3718 18.8483C15.5804 19.6639 14.6598 20.2299 13.6101 20.5462C12.5765 20.8458 11.5106 20.9956 10.4124 20.9956Z" fill="white"/>
<path d="M26.5357 20.8957C25.2437 20.8957 24.0809 20.5961 23.0473 19.9969C22.0299 19.381 21.2224 18.5487 20.6248 17.5C20.0434 16.4346 19.7527 15.2445 19.7527 13.9294C19.7527 12.5978 20.0434 11.4076 20.6248 10.3589C21.2224 9.29357 22.0299 8.46127 23.0473 7.86202C24.0809 7.24612 25.2437 6.93818 26.5357 6.93818C27.8278 6.93818 28.9825 7.24612 29.9999 7.86202C31.0174 8.46127 31.8168 9.29357 32.3982 10.3589C32.9958 11.4076 33.2946 12.5978 33.2946 13.9294C33.2946 15.2445 32.9958 16.4346 32.3982 17.5C31.8168 18.5487 31.0174 19.381 29.9999 19.9969C28.9825 20.5961 27.8278 20.8957 26.5357 20.8957ZM26.5357 19.4975C27.5532 19.4975 28.4576 19.2561 29.249 18.7734C30.0565 18.274 30.6863 17.6082 31.1385 16.7759C31.6069 15.9269 31.8411 14.9698 31.8411 13.9045C31.8411 12.8558 31.6069 11.9153 31.1385 11.083C30.6863 10.2341 30.0565 9.56822 29.249 9.08549C28.4576 8.58612 27.5532 8.33643 26.5357 8.33643C25.5344 8.33643 24.63 8.58612 23.8225 9.08549C23.015 9.56822 22.3771 10.2341 21.9087 11.083C21.4404 11.9153 21.2062 12.8641 21.2062 13.9294C21.2062 14.9781 21.4404 15.9269 21.9087 16.7759C22.3771 17.6082 23.015 18.274 23.8225 18.7734C24.63 19.2561 25.5344 19.4975 26.5357 19.4975Z" fill="white"/>
<path d="M49.5911 20.7459C49.3812 20.7459 49.2035 20.6793 49.0582 20.5462C48.929 20.3964 48.8644 20.2132 48.8644 19.9969V13.2802C48.8644 12.1816 48.6544 11.2744 48.2345 10.5587C47.8308 9.84288 47.2736 9.31021 46.563 8.96065C45.8685 8.59444 45.0772 8.41134 44.1889 8.41134C43.3168 8.41134 42.5335 8.58612 41.8391 8.93568C41.1446 9.2686 40.5955 9.73468 40.1918 10.3339C39.788 10.9332 39.5861 11.6073 39.5861 12.3564H38.3749C38.4395 11.3244 38.7382 10.4005 39.2712 9.58487C39.8041 8.75257 40.4986 8.10339 41.3546 7.6373C42.2105 7.15457 43.1553 6.91321 44.1889 6.91321C45.3517 6.91321 46.3934 7.1629 47.314 7.66227C48.2507 8.145 48.9855 8.86077 49.5185 9.80959C50.0514 10.7418 50.3179 11.8986 50.3179 13.2802V19.9969C50.3179 20.2132 50.2452 20.3964 50.0999 20.5462C49.9707 20.6793 49.8011 20.7459 49.5911 20.7459ZM38.8594 20.7459C38.6494 20.7459 38.4718 20.6793 38.3264 20.5462C38.1972 20.3964 38.1326 20.2132 38.1326 19.9969V7.83705C38.1326 7.60401 38.1972 7.42091 38.3264 7.28774C38.4718 7.15457 38.6494 7.08799 38.8594 7.08799C39.0855 7.08799 39.2631 7.15457 39.3923 7.28774C39.5215 7.42091 39.5861 7.60401 39.5861 7.83705V19.9969C39.5861 20.2132 39.5215 20.3964 39.3923 20.5462C39.2631 20.6793 39.0855 20.7459 38.8594 20.7459Z" fill="white"/>
<path d="M61.5063 20.8708C60.2305 20.8708 59.0919 20.5795 58.0906 19.9969C57.1054 19.3976 56.3302 18.5736 55.765 17.5249C55.1997 16.4763 54.9171 15.2778 54.9171 13.9294C54.9171 12.5645 55.1836 11.366 55.7165 10.3339C56.2495 9.28524 56.9843 8.46127 57.921 7.86202C58.8577 7.26277 59.9317 6.96314 61.143 6.96314C62.3381 6.96314 63.3959 7.25445 64.3165 7.83705C65.237 8.40301 65.9557 9.19369 66.4725 10.2091C66.9893 11.2078 67.2477 12.3647 67.2477 13.6797C67.2477 13.8961 67.1831 14.0709 67.0539 14.2041C66.9247 14.3206 66.7551 14.3789 66.5452 14.3789H55.8861V13.0805H66.9328L65.8669 13.9045C65.8992 12.8225 65.7215 11.8654 65.3339 11.0331C64.9463 10.2008 64.3891 9.55158 63.6624 9.08549C62.9518 8.60276 62.112 8.3614 61.143 8.3614C60.2224 8.3614 59.3987 8.60276 58.672 9.08549C57.9614 9.55158 57.3961 10.2008 56.9762 11.0331C56.5725 11.8654 56.3706 12.8308 56.3706 13.9294C56.3706 15.0114 56.5886 15.9686 57.0247 16.8008C57.4607 17.6331 58.0664 18.2907 58.8416 18.7734C59.6168 19.2395 60.505 19.4725 61.5063 19.4725C62.1362 19.4725 62.766 19.3643 63.3959 19.1479C64.0419 18.9149 64.5506 18.6152 64.9221 18.249C65.0513 18.1159 65.2047 18.0493 65.3824 18.0493C65.5762 18.0326 65.7377 18.0826 65.8669 18.1991C66.0445 18.3489 66.1333 18.5154 66.1333 18.6985C66.1495 18.8816 66.0768 19.048 65.9153 19.1979C65.3985 19.6806 64.7202 20.0801 63.8804 20.3964C63.0567 20.7126 62.2654 20.8708 61.5063 20.8708Z" fill="white"/>
<path d="M80.0895 20.7459C79.8957 20.7459 79.7423 20.7126 79.6292 20.646C79.5162 20.5628 79.3951 20.438 79.2659 20.2715L75.0991 14.5786L74.4935 14.1042L70.2541 8.33643C70.1249 8.16997 70.0684 7.99519 70.0845 7.81208C70.1007 7.61233 70.1733 7.44587 70.3025 7.31271C70.4317 7.16289 70.6013 7.08799 70.8113 7.08799C71.0212 7.08799 71.1989 7.16289 71.3442 7.31271L75.3898 12.8558L76.0439 13.3801L80.5256 19.5224C80.7355 19.7888 80.8082 20.0135 80.7436 20.1966C80.6951 20.3797 80.5982 20.5212 80.4529 20.6211C80.3075 20.7043 80.1864 20.7459 80.0895 20.7459ZM70.2783 20.7459C70.0684 20.7459 69.8988 20.6793 69.7696 20.5462C69.6404 20.413 69.5677 20.2549 69.5516 20.0718C69.5354 19.872 69.5919 19.6889 69.7211 19.5224L74.4208 13.505L75.2687 14.6036L70.787 20.5212C70.6901 20.671 70.5206 20.7459 70.2783 20.7459ZM75.729 14.2041L74.8569 13.1055L79.2659 7.53743C79.3951 7.38761 79.5162 7.27942 79.6292 7.21283C79.7584 7.1296 79.8876 7.08799 80.0168 7.08799C80.2429 7.08799 80.4125 7.16289 80.5256 7.31271C80.6386 7.44587 80.6951 7.61233 80.6951 7.81208C80.6951 7.99519 80.6305 8.16997 80.5013 8.33643L75.729 14.2041Z" fill="white"/>
<path d="M86.4363 20.7459C86.2264 20.7459 86.0487 20.6793 85.9034 20.5462C85.7742 20.3964 85.7096 20.2132 85.7096 19.9969V7.83705C85.7096 7.60401 85.7742 7.42091 85.9034 7.28774C86.0487 7.15457 86.2264 7.08799 86.4363 7.08799C86.6624 7.08799 86.8401 7.15457 86.9693 7.28774C87.0985 7.42091 87.1631 7.60401 87.1631 7.83705V19.9969C87.1631 20.2132 87.0985 20.3964 86.9693 20.5462C86.8401 20.6793 86.6624 20.7459 86.4363 20.7459ZM86.4121 4.21658C86.1053 4.21658 85.8388 4.10838 85.6127 3.89198C85.4027 3.65894 85.2977 3.37596 85.2977 3.04304C85.2977 2.66019 85.4108 2.37721 85.6369 2.19411C85.8791 1.99436 86.1456 1.89448 86.4363 1.89448C86.7109 1.89448 86.9612 1.99436 87.1873 2.19411C87.4296 2.37721 87.5507 2.66019 87.5507 3.04304C87.5507 3.37596 87.4376 3.65894 87.2115 3.89198C87.0016 4.10838 86.7351 4.21658 86.4121 4.21658Z" fill="white"/>
<path d="M97.7319 20.8957C96.8921 20.8957 96.0119 20.7376 95.0913 20.4213C94.1708 20.1051 93.4037 19.5724 92.79 18.8233C92.6608 18.6569 92.6042 18.4821 92.6204 18.299C92.6527 18.0992 92.7577 17.9328 92.9353 17.7996C93.0968 17.6831 93.2664 17.6415 93.444 17.6748C93.6378 17.708 93.7913 17.7996 93.9043 17.9494C94.3727 18.5154 94.9379 18.9149 95.6001 19.1479C96.2784 19.3643 97.0132 19.4725 97.8046 19.4725C99.1612 19.4725 100.122 19.2228 100.687 18.7234C101.253 18.2241 101.535 17.6415 101.535 16.9756C101.535 16.3264 101.228 15.7938 100.615 15.3776C100.017 14.9448 99.0885 14.6369 97.8288 14.4538C96.2138 14.2207 95.0187 13.7713 94.2435 13.1055C93.4683 12.4396 93.0807 11.6656 93.0807 10.7834C93.0807 9.95108 93.2825 9.25195 93.6863 8.68599C94.09 8.10339 94.6391 7.67059 95.3336 7.38761C96.0442 7.08799 96.8517 6.93818 97.7561 6.93818C98.8543 6.93818 99.783 7.14625 100.542 7.5624C101.301 7.9619 101.915 8.50289 102.383 9.18537C102.512 9.35183 102.553 9.53493 102.504 9.73468C102.472 9.91779 102.351 10.0676 102.141 10.1841C101.979 10.2673 101.81 10.2923 101.632 10.259C101.454 10.2257 101.301 10.1259 101.172 9.9594C100.768 9.42673 100.276 9.02723 99.6941 8.7609C99.1289 8.47792 98.4667 8.33643 97.7077 8.33643C96.6902 8.33643 95.8988 8.56115 95.3336 9.01059C94.7683 9.46002 94.4857 10.001 94.4857 10.6336C94.4857 11.0663 94.5988 11.4492 94.8249 11.7821C95.0671 12.0984 95.4547 12.373 95.9877 12.6061C96.5206 12.8225 97.2312 12.9973 98.1195 13.1304C99.3308 13.2969 100.284 13.5799 100.978 13.9794C101.689 14.3789 102.189 14.845 102.48 15.3776C102.787 15.8936 102.94 16.4513 102.94 17.0505C102.94 17.8329 102.698 18.5154 102.214 19.098C101.729 19.6806 101.091 20.13 100.3 20.4463C99.5084 20.7459 98.6524 20.8957 97.7319 20.8957Z" fill="white"/>
</svg>
